<svg width="171" height="489" viewBox="0 0 171 489" fill="none" xmlns="http://www.w3.org/2000/svg">
<g clip-path="url(#clip0_700_3849)">
<path d="M116.833 93.1661C116.833 93.1661 127.52 93.2442 131.039 111.57C134.584 129.896 137.712 154.288 141.883 163.451C146.054 172.614 153.509 189.014 156.976 205.622C160.443 222.23 161.877 232.721 162.685 236.183C163.493 239.645 166.855 254.17 167.142 258.518C167.403 262.865 165.995 273.147 165.604 274.943C165.187 276.714 161.824 285.955 161.433 286.345C161.016 286.762 159.14 284.419 159.296 282.987C159.452 281.555 160.677 273.928 160.677 273.928L158.931 262.474C158.931 262.474 157.706 272.262 156.168 272.965C154.63 273.668 153.17 273.225 152.805 273.017C152.44 272.809 153.066 264.245 151.319 257.372C149.573 250.5 153.196 243.836 151.163 237.719C149.13 231.601 132.603 197.474 129.553 186.385C126.504 175.269 115.686 145.75 112.427 137.888C109.143 130.053 110.342 92.7757 116.833 93.1661Z" fill="#FFEDE5"/>
<path d="M116.78 130.886C115.816 127.528 113.548 127.658 110.941 129.272C111.228 133.072 111.723 136.196 112.427 137.888C113.287 139.919 114.643 143.433 116.233 147.702C117.302 144.214 118.709 137.654 116.78 130.886Z" fill="#DD825C"/>
<path d="M131.326 172.953C131.222 172.953 131.117 172.901 131.091 172.796C131.039 172.666 131.117 172.51 131.248 172.458L138.051 169.985C138.182 169.933 138.338 170.011 138.39 170.141C138.442 170.271 138.364 170.428 138.234 170.48L131.43 172.953C131.378 172.953 131.352 172.953 131.326 172.953Z" fill="#472938"/>
<path d="M52.3167 93.6617C52.3167 93.6617 39.7523 95.7963 36.1551 111.597C32.0104 129.793 29.4819 154.315 25.3112 163.478C21.1404 172.641 13.6853 189.041 10.2183 205.649C6.75141 222.257 5.29166 232.721 4.48358 236.184C3.6755 239.646 0.312845 254.171 0.0261068 258.519C-0.234564 262.866 1.17306 273.148 1.56406 274.944C1.95507 276.741 5.34379 285.956 5.7348 286.346C6.15187 286.763 8.0287 284.42 7.8723 282.988C7.71589 281.556 6.49074 273.929 6.49074 273.929L8.23724 262.475C8.23724 262.475 9.46239 272.263 11.0003 272.966C12.5383 273.669 13.9981 273.226 14.363 273.018C14.7279 272.81 14.1023 264.245 15.8488 257.373C17.5953 250.501 13.972 243.837 16.0052 237.719C18.0385 231.602 34.565 197.475 37.6409 186.386C40.6907 175.27 51.5086 145.751 54.767 137.889C58.0514 130.054 58.8074 93.2452 52.3167 93.6617Z" fill="#FFEDE5"/>
<path d="M47.807 128.544C49.2147 125.343 53.6461 127.633 56.2528 129.247C55.966 133.048 55.4708 136.172 54.7669 137.864C53.9067 139.894 52.5512 143.408 50.9611 147.678C48.9279 145.673 46.1648 132.293 47.807 128.544Z" fill="#DD825C"/>
<path d="M35.9205 172.954C35.8683 172.954 35.8423 172.954 35.7901 172.928L30.1857 169.908C30.0554 169.83 30.0032 169.7 30.0814 169.57C30.1596 169.439 30.29 169.387 30.4203 169.465L36.0247 172.485C36.1551 172.563 36.2072 172.693 36.129 172.823C36.1029 172.902 35.9987 172.954 35.9205 172.954Z" fill="#472938"/>
<path d="M124.627 488.869H156.585C157.367 488.869 157.993 488.245 157.993 487.464C157.993 486.501 157.941 485.147 157.81 483.819H124.053C123.871 485.173 123.688 486.422 123.506 487.568C123.402 488.245 123.949 488.869 124.627 488.869Z" fill="#3B2645"/>
<path d="M156.35 478.9C154.63 477.806 149.182 473.173 147.409 461.198C147.409 461.198 147.409 461.198 147.409 461.172C147.409 461.146 147.409 461.094 147.383 461.068C147.253 460.313 146.315 456.695 139.459 456.721C131.821 456.773 130.726 465.337 130.283 465.233C129.84 465.129 128.745 459.975 126.816 459.923C126.008 467.914 124.992 477.025 124.079 483.82H157.836C157.602 481.633 157.211 479.42 156.35 478.9Z" fill="#AB8DA8"/>
<path d="M130.257 465.233C130.727 465.337 131.795 456.773 139.433 456.721C146.289 456.669 147.227 460.287 147.357 461.068C147.253 460.365 147.149 459.636 147.071 458.856C146.471 452.816 146.654 441.597 146.654 441.597L128.485 442.065C128.485 442.065 127.755 450.135 126.764 459.897C128.746 459.949 129.814 465.129 130.257 465.233Z" fill="#FFEDE5"/>
<path d="M156.351 478.9C156.351 478.978 156.324 479.03 156.324 479.03C156.324 479.03 149.521 479.03 140.71 479.03C131.9 479.03 130.231 465.233 130.231 465.233C129.762 465.129 128.693 459.975 126.764 459.923C125.956 467.915 124.94 477.025 124.027 483.82H157.784C157.602 481.633 157.211 479.472 156.351 478.9Z" fill="#AB8DA8"/>
<path d="M140.736 479.029C149.547 479.029 156.351 479.029 156.351 479.029C156.351 479.029 156.351 478.977 156.377 478.899C156.377 478.899 156.377 478.899 156.351 478.873C154.63 477.78 149.182 473.146 147.41 461.172C147.41 461.172 147.41 461.172 147.41 461.146C147.41 461.12 147.41 461.068 147.383 461.042C147.253 460.287 146.315 456.668 139.459 456.694C131.821 456.747 130.727 465.311 130.284 465.207C130.257 465.233 131.926 479.029 140.736 479.029Z" fill="#543753"/>
<path d="M47.0512 488.869H15.0929C14.3109 488.869 13.6853 488.245 13.6853 487.464C13.6853 486.501 13.7374 485.147 13.8678 483.819H47.6246C47.8071 485.173 47.9896 486.422 48.172 487.568C48.2763 488.245 47.755 488.869 47.0512 488.869Z" fill="#3B2645"/>
<path d="M15.3277 478.9C17.0481 477.806 22.4961 473.173 24.2687 461.198C24.2687 461.198 24.2687 461.198 24.2687 461.172C24.2687 461.146 24.2687 461.094 24.2947 461.068C24.4251 460.313 25.3635 456.695 32.2191 456.721C39.8568 456.773 40.9516 465.337 41.3948 465.233C41.8379 465.129 42.9327 459.975 44.8617 459.923C45.6698 467.914 46.6864 477.025 47.5987 483.82H13.8679C14.0765 481.633 14.4935 479.42 15.3277 478.9Z" fill="#AB8DA8"/>
<path d="M41.4206 465.233C40.9513 465.337 39.8826 456.773 32.2449 456.721C25.3893 456.669 24.4509 460.287 24.3206 461.068C24.4248 460.365 24.5291 459.636 24.6073 458.856C25.2068 452.816 25.0244 441.597 25.0244 441.597L43.1931 442.065C43.1931 442.065 43.923 450.135 44.9135 459.897C42.9324 459.949 41.8637 465.129 41.4206 465.233Z" fill="#FFEDE5"/>
<path d="M15.3277 478.9C15.3277 478.978 15.3537 479.03 15.3537 479.03C15.3537 479.03 22.1572 479.03 30.9679 479.03C39.7786 479.03 41.4469 465.233 41.4469 465.233C41.9161 465.129 42.9848 459.975 44.9138 459.923C45.7219 467.915 46.7385 477.025 47.6508 483.82H13.8679C14.0765 481.633 14.4675 479.472 15.3277 478.9Z" fill="#AB8DA8"/>
<path d="M30.9418 479.029C22.1311 479.029 15.3276 479.029 15.3276 479.029C15.3276 479.029 15.3276 478.977 15.3015 478.899C15.3015 478.899 15.3015 478.899 15.3276 478.873C17.048 477.78 22.496 473.146 24.2686 461.172C24.2686 461.172 24.2686 461.172 24.2686 461.146C24.2686 461.12 24.2686 461.068 24.2947 461.042C24.425 460.287 25.3634 456.668 32.219 456.694C39.8567 456.747 40.9515 465.311 41.3947 465.207C41.4207 465.233 39.7524 479.029 30.9418 479.029Z" fill="#543753"/>
<path d="M141.596 352.517C139.355 342.339 139.563 313.392 137.321 273.46C135.783 246.179 128.354 225.171 123.793 214.603C82.0071 228.347 54.9756 219.939 45.3829 215.722C27.2141 256.175 31.4891 303.318 32.0626 320.498C32.6621 338.824 28.3871 356.344 24.0079 380.813C19.6286 405.257 24.0079 442.534 24.0079 442.534C32.4797 445.579 43.48 442.117 43.48 442.117C43.0629 423.166 48.172 405.231 52.8641 383.026C57.5562 360.795 54.6888 346.165 60.8146 329.661C66.9403 313.157 82.1114 257.945 82.1114 257.945H88.6282C91.0785 281.581 102.235 307.665 110.681 331.015C119.127 354.365 115.295 367.823 121.681 395.807C128.068 423.791 127.39 442.091 127.39 442.091C134.949 445.345 147.566 441.57 147.566 441.57C147.566 441.57 147.905 421.162 148.113 398.332C148.322 375.529 143.838 362.695 141.596 352.517Z" fill="#AB8DA8"/>
<path d="M123.766 214.629C121.655 209.735 120.169 207.054 120.169 207.054L49.3189 207.731C47.8852 210.36 46.5818 213.041 45.3567 215.748C54.9754 219.965 81.9809 228.373 123.766 214.629Z" fill="#3B2645"/>
<path d="M96.8653 71.0918L97.9601 86.8408C98.1426 89.3138 100.045 91.2922 102.496 91.5525L116.859 93.1664C116.859 93.1664 122.098 130.99 113.261 146.609C104.425 162.228 109.143 181.179 120.169 207.054C120.169 207.054 74.8907 217.232 49.3189 207.731C49.3189 207.731 60.606 181.803 57.7386 163.061C54.8712 144.318 47.39 141.585 47.807 128.569C48.2241 115.553 52.2906 93.661 52.2906 93.661L66.9924 90.8757C68.4782 90.5893 69.5991 89.4179 69.8077 87.9341L71.893 73.4086L96.8653 71.0918Z" fill="#FFEDE5"/>
<path d="M71.9192 73.4086C71.9192 73.4086 79.1398 93.1664 97.5692 81.3482L96.8654 71.0918L71.9192 73.4086Z" fill="#DD825C"/>
<path d="M113.235 146.609C114.721 143.98 115.79 140.752 116.572 137.159C116.885 135.337 117.302 130.834 115.581 123.467C113.288 113.731 113.887 92.8279 113.887 92.8279L104.868 91.8127C104.868 91.8127 103.512 122.842 83.2583 122.842C63.0042 122.842 63.4995 91.5264 63.4995 91.5264L55.7054 93.0102C55.7054 93.0102 57.087 124.925 47.8332 128.543C47.4161 141.585 54.8973 144.292 57.7647 163.035C57.9472 164.258 58.0775 165.508 58.1557 166.783C58.1557 166.783 76.8458 174.853 108.674 166.184C108.465 159.052 109.847 152.596 113.235 146.609Z" fill="#AB8DA8"/>
<path d="M58.1296 166.809C58.1296 166.809 76.8197 174.879 108.648 166.21C108.595 164.44 108.648 162.696 108.804 161.004C86.2039 167.121 64.9853 163.607 57.5562 161.993C57.6083 162.332 57.6604 162.696 57.7386 163.06C57.9211 164.284 58.0514 165.533 58.1296 166.809Z" fill="#3B2645"/>
<path d="M72.0756 154.002C67.6442 154.002 64.9071 152.805 64.7768 152.753C64.6464 152.701 64.5943 152.544 64.6464 152.414C64.6986 152.284 64.855 152.232 64.9853 152.284C65.0114 152.31 68.5304 153.82 73.9003 153.429C75.8814 153.273 77.3932 152.961 78.8791 152.649C81.4597 152.102 83.8839 151.581 87.8983 152.284C92.9292 153.169 99.1853 154.028 103.017 152.727C103.148 152.675 103.304 152.753 103.33 152.883C103.382 153.013 103.304 153.169 103.174 153.195C99.2635 154.523 92.9031 153.664 87.8201 152.753C83.91 152.076 81.6422 152.544 79.0094 153.117C77.4975 153.429 75.9596 153.768 73.9524 153.924C73.3007 153.976 72.6751 154.002 72.0756 154.002Z" fill="#472938"/>
<path d="M83.6493 208.798C84.182 208.798 84.6138 208.087 84.6138 207.21C84.6138 206.333 84.182 205.622 83.6493 205.622C83.1166 205.622 82.6848 206.333 82.6848 207.21C82.6848 208.087 83.1166 208.798 83.6493 208.798Z" fill="#DD825C"/>
<path d="M108.199 58.9214C109.513 55.2834 108.997 51.7647 107.047 51.0623C105.097 50.3599 102.451 52.7396 101.137 56.3776C99.823 60.0157 100.339 63.5343 102.289 64.2367C104.239 64.9392 106.885 62.5594 108.199 58.9214Z" fill="#FFEDE5"/>
<path d="M65.4157 64.2453C67.3658 63.5429 67.8815 60.0242 66.5675 56.3862C65.2536 52.7482 62.6074 50.3685 60.6573 51.0709C58.7071 51.7733 58.1914 55.292 59.5054 58.93C60.8194 62.568 63.4655 64.9477 65.4157 64.2453Z" fill="#FFEDE5"/>
<path d="M64.2292 60.107C64.151 60.107 64.0728 60.0809 64.0207 60.0028L61.4661 56.3845C61.3879 56.2803 61.414 56.0981 61.5183 56.02C61.6225 55.9419 61.7789 55.968 61.8832 56.0721L64.4378 59.6905C64.516 59.7946 64.4899 59.9768 64.3856 60.0549C64.3335 60.107 64.2814 60.107 64.2292 60.107Z" fill="#472938"/>
<path d="M103.721 59.6125C103.669 59.6125 103.591 59.5865 103.564 59.5605C103.46 59.4564 103.46 59.3002 103.538 59.196L106.249 56.0983C106.354 55.9942 106.51 55.9942 106.614 56.0723C106.719 56.1764 106.719 56.3326 106.64 56.4367L103.929 59.5345C103.851 59.5865 103.773 59.6125 103.721 59.6125Z" fill="#472938"/>
<path d="M103.721 49.5901C103.721 67.3956 95.6139 82.598 83.9358 82.598C72.2578 82.598 62.7954 66.1721 62.7954 48.3667C62.7954 30.5612 72.2317 18.1182 83.9358 18.1182C95.6399 18.1182 103.721 31.7847 103.721 49.5901Z" fill="#FFEDE5"/>
<path d="M84.9065 26.4838C94.1 25.5331 100.943 18.8849 100.192 11.6345C99.4398 4.38411 91.3775 -0.722812 82.184 0.227865C72.9904 1.17854 66.147 7.82681 66.8988 15.0772C67.6506 22.3276 75.7129 27.4345 84.9065 26.4838Z" fill="#3B2645"/>
<g opacity="0.5">
<g opacity="0.5">
<path opacity="0.5" d="M84.9004 26.4737C93.7372 25.5626 100.384 19.3931 100.228 12.4948C97.543 7.41869 90.8437 4.21683 83.4146 4.99777C74.5779 5.90887 67.9308 12.0783 68.0872 18.9766C70.7982 24.0528 77.4713 27.2546 84.9004 26.4737Z" fill="#3B2645"/>
</g>
</g>
<path d="M103.643 52.2716C103.643 52.2716 95.7443 43.2647 96.7609 32.9823C96.7609 32.9823 89.8792 45.3472 62.7955 51.6208L60.4495 51.1522C60.4495 51.1522 51.8474 11.168 83.9359 11.0638C103.252 10.9858 104.659 23.2986 104.659 23.2986C104.659 23.2986 115.321 26.4744 107.031 51.0741L103.643 52.2716Z" fill="#3B2645"/>
<path d="M83.3364 65.3913C82.007 65.3913 80.3126 64.324 80.078 63.8815C79.8174 63.3609 80.5472 60.4193 81.7724 57.1914C83.0757 53.7553 82.3459 51.7509 82.3459 51.7248C82.2937 51.5947 82.3719 51.4385 82.5023 51.3864C82.6326 51.3344 82.789 51.4125 82.8411 51.5426C82.8672 51.6207 83.6492 53.7032 82.2677 57.3476C80.834 61.1482 80.469 63.3609 80.5472 63.6212C80.6776 63.8815 82.3198 64.9488 83.4928 64.8447C84.6919 64.7405 86.4905 63.7253 86.4905 63.6993C86.6208 63.6212 86.7772 63.6733 86.8294 63.8034C86.9076 63.9336 86.8554 64.0898 86.7251 64.1418C86.6469 64.1939 84.8222 65.2351 83.5189 65.3393C83.4667 65.3913 83.3885 65.3913 83.3364 65.3913Z" fill="#472938"/>
<path d="M83.6491 71.3523C80.0779 71.3523 77.6537 68.9314 77.5494 68.8273C77.4451 68.7232 77.4451 68.567 77.5494 68.4629C77.6537 68.3587 77.8101 68.3587 77.9143 68.4629C77.9404 68.4889 80.3125 70.8317 83.6491 70.8317C86.9857 70.8317 89.3578 68.4889 89.3838 68.4629C89.4881 68.3587 89.6445 68.3587 89.7488 68.4629C89.853 68.567 89.853 68.7232 89.7488 68.8273C89.6445 68.9314 87.2203 71.3523 83.6491 71.3523Z" fill="#472938"/>
<path d="M93.2941 55.1351C92.4078 55.1091 91.73 54.3541 91.7561 53.4691L91.8082 52.3237C91.8343 51.4386 92.5902 50.7618 93.4765 50.7878C94.3628 50.8139 95.0406 51.5688 95.0145 52.4538L94.9624 53.5992C94.9363 54.4843 94.1803 55.1872 93.2941 55.1351Z" fill="#472938"/>
<path d="M74.7341 55.1351C73.8478 55.1872 73.0919 54.4843 73.0658 53.5993L73.0137 52.4539C72.9616 51.5688 73.6654 50.8139 74.5517 50.7879C75.4379 50.7358 76.1939 51.4387 76.2199 52.3237L76.2721 53.4691C76.2981 54.3542 75.6204 55.1091 74.7341 55.1351Z" fill="#472938"/>
<path d="M98.2467 46.7782C98.2467 46.7782 96.2395 44.9821 93.1897 45.5287C90.1398 46.0754 89.4621 46.2316 89.2535 45.9973C89.045 45.789 88.7843 44.071 92.3034 43.5243C95.8224 42.9776 98.0642 45.3986 98.2467 46.7782Z" fill="#472938"/>
<path d="M170.844 258.518C170.583 254.171 167.194 239.646 166.386 236.183C165.578 232.721 164.145 222.231 160.678 205.622C157.211 189.014 149.756 172.615 145.585 163.452C141.414 154.289 138.286 129.897 134.741 111.571C131.196 93.2449 120.534 93.1668 120.534 93.1668L116.311 92.6982L108.543 91.8392L106.145 91.5789C103.695 91.2925 101.792 89.3142 101.61 86.8672L101.245 81.4006L100.775 74.5543C102.757 71.6388 104.347 68.0465 105.494 64.0377C105.65 64.1418 105.806 64.2199 105.963 64.2719C107.918 64.9748 110.551 62.6059 111.88 58.9615C113.183 55.3171 112.662 51.8029 110.733 51.1C119.022 26.5264 108.361 23.3245 108.361 23.3245C108.361 23.3245 107.866 19.0814 103.565 15.6192C103.851 14.63 103.982 13.5888 103.956 12.5475C103.956 12.2612 103.93 11.9748 103.904 11.6885C103.148 4.45177 95.0929 -0.650391 85.8912 0.28674C76.6895 1.2499 69.8599 7.88791 70.6159 15.1246C70.668 15.7234 70.7983 16.3221 70.9547 16.8948C59.1464 27.9842 64.1512 51.1781 64.1512 51.1781C62.3787 52.0372 61.9355 55.4473 63.2128 58.9355C64.5162 62.5278 67.1229 64.8967 69.0518 64.2719C70.5637 68.7754 72.7012 72.7582 75.2819 75.8559L73.5354 87.9605C73.3269 89.4443 72.1799 90.6157 70.7201 90.9021L67.2011 91.5789L63.682 92.2297L56.0183 93.6874C56.0183 93.6874 43.454 95.822 39.8567 111.623C35.7121 129.819 33.1836 154.341 29.0128 163.504C24.8421 172.667 17.3869 189.066 13.92 205.675C10.427 222.231 8.99332 232.721 8.18524 236.183C7.37716 239.646 4.0145 254.171 3.72777 258.518C3.4671 262.866 4.87472 273.148 5.26572 274.944C5.6828 276.714 9.04545 285.955 9.43646 286.346C9.85353 286.762 11.7304 284.42 11.574 282.988C11.4176 281.556 10.1924 273.929 10.1924 273.929L11.9389 262.475C11.9389 262.475 13.164 272.263 14.702 272.966C16.24 273.669 17.6997 273.226 18.0647 273.018C18.4296 272.81 17.804 264.245 19.5505 257.373C21.297 250.501 17.6737 243.837 19.7069 237.719C21.7401 231.602 38.2666 197.475 41.3426 186.385C43.6104 178.159 50.1272 159.833 54.6889 147.703C54.7932 147.442 54.8714 147.208 54.9756 146.948C54.9756 146.922 55.0017 146.896 55.0017 146.896C55.106 146.661 55.1842 146.401 55.2624 146.167V146.141C55.3406 145.906 55.4448 145.672 55.523 145.438C55.523 145.412 55.5491 145.386 55.5491 145.386C55.6273 145.178 55.7055 144.995 55.7576 144.813C57.7387 149.03 59.9284 154.028 61.2578 162.02C61.3099 162.358 61.3621 162.723 61.4403 163.087C61.4924 163.4 61.5185 163.686 61.5706 163.998C61.5706 164.05 61.5706 164.076 61.5967 164.128C61.6227 164.389 61.6488 164.675 61.7009 164.935C61.7009 164.961 61.7009 164.961 61.7009 164.987C61.7531 165.612 61.8052 166.211 61.8573 166.836C62.9 185.11 53.0467 207.757 53.0467 207.757C51.613 210.386 50.3096 213.067 49.0845 215.775C30.9157 256.228 35.1907 303.37 35.7642 320.551C36.3637 338.877 32.0887 356.396 27.7095 380.866C23.3302 405.309 27.7095 442.586 27.7095 442.586C28.0483 442.717 28.3872 442.821 28.7522 442.925C28.7782 446.049 28.8043 454.092 28.3351 458.882C28.2569 459.637 28.1526 460.366 28.0483 461.095C28.0483 461.147 28.0223 461.199 28.0223 461.199V461.225C26.2237 473.173 20.8017 477.833 19.0813 478.926C18.3775 479.369 17.9865 480.905 17.7519 482.623V482.649C17.7258 482.779 17.7258 482.909 17.6997 483.013C17.6997 483.039 17.6997 483.091 17.6997 483.117C17.6997 483.221 17.6737 483.3 17.6737 483.404C17.6476 483.534 17.6476 483.664 17.6215 483.82C17.4912 485.174 17.4651 486.501 17.439 487.465C17.439 488.245 18.0647 488.87 18.8467 488.87H50.8049C51.5087 488.87 52.0301 488.245 51.9258 487.543C51.7433 486.397 51.5608 485.148 51.3784 483.794C50.44 477 49.4494 467.889 48.6413 459.897C47.729 450.916 47.0252 443.367 46.9209 442.222C47.1034 442.17 47.2076 442.144 47.2076 442.144C46.7906 423.193 51.8997 405.257 56.5918 383.053C61.2839 360.822 58.4165 346.192 64.5422 329.688C70.668 313.184 85.839 257.972 85.839 257.972H92.3558C94.8061 281.608 105.963 307.692 114.409 331.042C122.854 354.392 119.022 367.85 125.409 395.834C131.795 423.818 131.118 442.118 131.118 442.118C131.482 442.274 131.847 442.404 132.238 442.534C132.082 444.357 131.404 451.489 130.544 459.923C129.736 467.915 128.719 477.026 127.807 483.82C127.625 485.174 127.442 486.423 127.26 487.569C127.155 488.272 127.677 488.896 128.381 488.896H160.339C161.121 488.896 161.746 488.272 161.746 487.491C161.746 486.527 161.694 485.174 161.564 483.846C161.564 483.716 161.538 483.586 161.512 483.43C161.512 483.326 161.486 483.247 161.486 483.143C161.486 483.117 161.486 483.065 161.486 483.039C161.46 482.909 161.46 482.779 161.434 482.675V482.649C161.199 480.905 160.808 479.369 160.104 478.952C158.384 477.859 152.936 473.225 151.163 461.251V461.225C151.163 461.199 151.163 461.173 151.137 461.121C151.033 460.418 150.929 459.689 150.85 458.908C150.277 453.363 150.407 443.471 150.433 441.884C151.007 441.727 151.32 441.649 151.32 441.649C151.32 441.649 151.658 421.241 151.867 398.411C152.075 375.582 147.592 362.748 145.35 352.57C143.108 342.392 143.317 313.445 141.075 273.512C139.459 246.179 132.03 225.198 127.468 214.629C125.357 209.735 123.871 207.054 123.871 207.054C117.067 191.071 112.662 177.743 112.349 166.211C112.349 165.768 112.323 165.326 112.323 164.883C112.323 163.556 112.375 162.28 112.506 161.005V160.979C112.584 160.146 112.688 159.313 112.818 158.506C112.818 158.48 112.818 158.454 112.818 158.454C112.871 158.037 112.949 157.647 113.027 157.256C113.027 157.23 113.027 157.23 113.027 157.204C113.105 156.814 113.183 156.449 113.262 156.059C113.262 156.033 113.262 156.007 113.288 155.981C113.366 155.59 113.47 155.226 113.574 154.835C113.574 154.783 113.6 154.757 113.6 154.705C113.705 154.341 113.783 154.002 113.913 153.664C113.913 153.638 113.939 153.612 113.939 153.56C114.044 153.195 114.174 152.831 114.304 152.466C114.33 152.414 114.356 152.336 114.356 152.284C114.461 151.946 114.591 151.633 114.721 151.295C114.721 151.269 114.747 151.243 114.747 151.191C114.878 150.852 115.034 150.488 115.164 150.15C115.191 150.071 115.217 149.993 115.269 149.915C115.399 149.603 115.556 149.264 115.712 148.952C115.712 148.926 115.738 148.9 115.738 148.874C115.894 148.536 116.077 148.197 116.233 147.859C116.285 147.781 116.311 147.703 116.364 147.624C116.546 147.286 116.729 146.948 116.911 146.609C117.067 146.323 117.25 146.011 117.406 145.698C117.458 145.62 117.484 145.516 117.537 145.438C117.667 145.204 117.771 144.943 117.875 144.709C117.902 144.631 117.954 144.553 117.98 144.449C118.11 144.162 118.214 143.876 118.345 143.59C118.397 143.694 118.423 143.798 118.475 143.902C118.475 143.928 118.501 143.954 118.501 143.98C118.579 144.188 118.657 144.397 118.736 144.605C118.736 144.631 118.762 144.657 118.762 144.683C118.84 144.891 118.918 145.125 119.022 145.334C119.022 145.36 119.048 145.386 119.048 145.386C119.127 145.62 119.231 145.854 119.309 146.089V146.115C119.387 146.349 119.492 146.583 119.57 146.844C119.57 146.87 119.596 146.896 119.596 146.896C119.7 147.156 119.778 147.39 119.883 147.651C124.444 159.807 130.961 178.133 133.229 186.333C136.279 197.449 152.805 231.55 154.865 237.667C156.924 243.785 153.275 250.449 155.021 257.321C156.768 264.193 156.142 272.757 156.507 272.966C156.872 273.174 158.332 273.617 159.87 272.914C161.407 272.211 162.633 262.423 162.633 262.423L164.379 273.877C164.379 273.877 163.154 281.504 162.998 282.936C162.841 284.368 164.744 286.71 165.135 286.294C165.552 285.877 168.915 276.662 169.306 274.892C169.697 273.174 171.131 262.866 170.844 258.518Z" stroke="white" stroke-miterlimit="10"/>
</g>
<defs>
<clipPath id="clip0_700_3849">
<rect width="171" height="489" fill="white"/>
</clipPath>
</defs>
</svg>
