<svg width="40" height="41" viewBox="0 0 40 41" fill="none" xmlns="http://www.w3.org/2000/svg">
<path d="M32.5285 24.2749C33.4013 24.4599 34.3028 24.4636 35.177 24.2858C36.0513 24.108 36.8797 23.7525 37.6109 23.2413C37.9078 23.0438 38.1675 22.7954 38.3778 22.5075C38.7671 21.9391 38.8177 21.1975 38.6776 20.524C38.5199 19.7668 37.9944 19.1088 37.9515 18.3419C37.9068 17.5438 38.3622 16.9793 38.7652 16.3272C40.3127 13.8435 39.2849 10.7505 36.7992 9.37232C36.0206 8.93629 35.0882 8.65989 34.5256 7.95914C34.244 7.57008 34.0362 7.13266 33.9125 6.66859C33.3285 4.82913 32.7154 3.16485 31.382 1.72637C30.0486 0.287886 27.6544 -0.303857 25.7663 0.149683C24.3103 0.500058 23.0178 0.747266 21.5307 0.59933C20.8027 0.525362 20.0669 0.570132 19.3369 0.548721C17.7797 0.503951 16.1135 1.30203 15.0662 2.42712C13.8575 3.72545 13.3338 5.67781 13.8983 7.3635C14.2176 8.32509 14.4998 8.8234 14.0579 9.80834C13.6881 10.6317 13.0477 11.3013 12.6078 12.0858C12.0737 13.0824 11.8649 14.2212 12.0109 15.3425C12.1568 16.4638 12.65 17.5113 13.4214 18.338C13.7614 18.7064 14.1799 18.9938 14.6458 19.1789C15.2064 19.3736 15.8137 19.3736 16.3977 19.4495C17.0692 19.5351 17.7602 19.7551 18.1943 20.2767C18.5038 20.6524 18.6381 21.141 18.8561 21.579C19.0741 22.0169 19.4401 22.4413 19.9267 22.4783C20.3043 22.5075 20.6567 22.2953 20.9486 22.0559" fill="#CE534A"/>
<g style="mix-blend-mode:multiply" opacity="0.26">
<g style="mix-blend-mode:multiply" opacity="0.26">
<path d="M22.7433 1.80396C21.6652 1.88136 20.5924 2.01848 19.5295 2.21467C18.6861 2.33882 17.8664 2.59019 17.0983 2.96019C16.345 3.3495 15.6793 3.97628 15.3815 4.77435C14.6554 6.72088 16.2886 8.93991 15.656 10.9234C15.1246 12.5935 13.1819 13.9055 14.3421 15.7761C15.3776 17.4423 18.1222 16.8525 19.4166 18.3922C20.3899 19.5407 20.3627 21.4697 21.6766 22.1977C22.6167 22.7194 23.7807 22.3417 24.791 21.9505C25.6085 21.6313 26.5273 21.203 26.7628 20.3563C26.8971 19.8716 26.7628 19.3577 26.6811 18.8613C26.4225 17.4228 26.4958 15.9441 26.8952 14.5381C27.1346 13.6875 27.4967 12.8505 27.4928 11.9687C27.4889 11.0869 26.975 10.1137 26.1049 9.96379" fill="#CE534A"/>
</g>
</g>
<path d="M36.8944 40.8747C36.8837 40.7809 36.8964 40.6859 36.9314 40.5983C37.5446 38.9802 37.8099 37.2511 37.71 35.5237C37.6302 33.9334 37.276 32.3664 37.4103 30.7703C37.4175 30.6549 37.4582 30.5442 37.5274 30.4515C37.5965 30.3589 37.6911 30.2884 37.7996 30.2486C37.7237 29.9041 37.6361 29.5576 37.5329 29.2111C36.8321 26.8558 35.6311 24.4733 33.5425 23.062C32.7483 22.5248 31.7906 22.2834 30.9478 21.8396C29.0752 20.8819 28.174 17.7772 29.5444 16.0176C30.0427 15.3771 30.6578 14.801 30.9478 14.0438C32.0125 14.0029 33.4004 13.7499 33.9299 12.7338C34.582 11.486 34.29 9.29815 32.5946 9.23002C32.3293 9.21437 32.0646 9.26915 31.8274 9.3888C31.5901 9.50845 31.3888 9.68871 31.2437 9.91131C31.3824 8.42331 31.2236 6.92258 30.7765 5.49659C30.5546 4.78805 30.4047 4.426 29.8441 3.93937C29.2926 3.44924 28.6978 3.01012 28.0669 2.62741C27.0116 2.02511 25.8341 1.66841 24.6219 1.58382C23.4097 1.49924 22.1941 1.68894 21.0653 2.13883C20.306 2.42044 19.6242 2.87806 19.0759 3.47415C18.2798 4.39485 17.9839 5.64258 17.8107 6.84358C17.5087 8.95079 17.5015 11.0898 17.7893 13.199C17.908 14.0632 18.0852 14.9509 18.5679 15.6691C19.0117 16.329 19.7553 16.8818 20.5456 16.9694C21.3359 17.057 22.0522 17.0667 22.8288 17.0901C23.3875 17.1057 23.9656 17.1738 24.4445 17.4619C25.3652 18.0166 25.3652 19.06 24.8065 19.8834C24.6798 20.0809 24.5102 20.2472 24.3102 20.37C23.6328 20.7593 22.7529 20.37 22.0288 20.3953C21.2015 20.4148 20.5047 20.4595 19.7689 20.8897C18.9423 21.3689 18.1846 21.9583 17.5168 22.6416C16.308 23.8757 15.3406 25.3161 14.2797 26.6728C13.7094 27.3989 13.1118 28.1522 12.2592 28.5201C11.1731 28.9892 10.3127 28.1113 9.75793 27.2354C9.11112 26.2253 8.57346 25.1493 8.154 24.0256C6.75597 24.6003 5.40265 25.2783 4.10522 26.0538C4.1208 26.1512 4.13248 26.2368 4.14221 26.2952C4.26095 27.0913 4.6522 27.8524 4.87216 28.631C5.11766 29.4999 5.42335 30.3507 5.78702 31.1771C6.12836 31.9448 6.51846 32.6899 6.95494 33.4078C7.34424 34.0657 7.82698 35.0293 8.45181 35.4984C9.61973 36.3743 11.6422 36.059 12.8763 35.5529C14.889 34.7237 16.4579 33.3728 17.836 31.7338C17.6537 34.646 17.2338 37.5384 16.5805 40.3822C16.5531 40.4374 16.5392 40.4983 16.5399 40.5599C16.5406 40.6216 16.5559 40.6821 16.5846 40.7367C16.6133 40.7912 16.6546 40.8382 16.7049 40.8737C16.7553 40.9092 16.8134 40.9322 16.8744 40.9408C19.0956 41.8967 21.4205 42.5911 23.8021 43.01C25.9433 43.3896 28.6139 44.0417 30.5741 42.7901C30.6919 42.6939 30.8354 42.6343 30.9867 42.6188C31.0842 42.6256 31.1794 42.6514 31.267 42.6947C32.6442 43.2314 34.1453 43.3664 35.5961 43.084C36.1222 42.4065 36.5585 41.6639 36.8944 40.8747Z" fill="#FF927D"/>
<path d="M36.8943 40.8746C36.8836 40.7808 36.8963 40.6859 36.9313 40.5982C37.5445 38.9802 37.8098 37.2511 37.7099 35.5236C37.6301 33.9333 37.2759 32.3664 37.4102 30.7702C37.4175 30.6549 37.4581 30.5441 37.5273 30.4515C37.5964 30.3589 37.691 30.2883 37.7995 30.2485C37.7236 29.904 37.636 29.5575 37.5328 29.211C36.8321 26.8557 35.6311 24.4732 33.5424 23.062C32.7483 22.5247 31.7906 22.2834 30.9477 21.8396C30.7384 21.7332 30.5424 21.6025 30.3638 21.4502C29.4173 22.2144 28.2277 22.613 27.0118 22.5734C26.3428 22.5272 25.6952 22.3181 25.1256 21.9642C24.5559 21.6103 24.0815 21.1225 23.7436 20.5432C23.1869 20.5879 22.5757 20.3894 22.0424 20.403C21.2151 20.4225 20.5182 20.4673 19.7825 20.8974C18.9558 21.3767 18.1982 21.966 17.5303 22.6493C16.5473 23.6518 15.7239 24.7905 14.8811 25.9117C15.4495 27.2139 16.6174 28.2845 17.3571 29.5439C17.6766 30.0288 17.8521 30.5944 17.8632 31.1751C17.8484 31.4115 17.8059 31.6454 17.7367 31.8719L17.8418 31.7493C17.6595 34.6615 17.2396 37.5539 16.5863 40.3977C16.5588 40.4529 16.5449 40.5138 16.5456 40.5755C16.5463 40.6371 16.5617 40.6977 16.5904 40.7522C16.6191 40.8067 16.6603 40.8537 16.7107 40.8892C16.7611 40.9247 16.8192 40.9477 16.8802 40.9564C19.1014 41.9123 21.4262 42.6066 23.8079 43.0255C25.949 43.4051 28.6197 44.0572 30.5798 42.8056C30.6977 42.7094 30.8412 42.6498 30.9925 42.6343C31.09 42.6411 31.1852 42.6669 31.2728 42.7102C32.6499 43.2469 34.1511 43.3819 35.6019 43.0995C36.127 42.4168 36.5615 41.669 36.8943 40.8746Z" fill="#AA4F7A"/>
<path d="M18.5563 6.58473C19.1208 6.47572 20.5242 5.6504 20.3335 4.91461C20.1271 4.12432 18.8852 4.86011 18.5816 5.2027C18.3694 5.44406 17.803 6.07474 17.9665 6.40565C18.0677 6.60225 18.3402 6.62561 18.5563 6.58473Z" fill="#C46153"/>
<path d="M26.3581 5.59999C25.7878 5.67785 24.1936 5.35083 24.1371 4.59169C24.0768 3.77609 25.49 4.07196 25.889 4.29971C26.1693 4.46127 26.9109 4.87393 26.8623 5.23988C26.8253 5.45789 26.5761 5.56884 26.3581 5.59999Z" fill="#C46153"/>
<path d="M23.195 10.2405C23.1794 10.2405 23.1268 10.3203 23.0198 10.4663C22.8705 10.6706 22.6959 10.8551 22.5001 11.0152C22.3779 11.1244 22.2309 11.202 22.0718 11.241C22.006 11.2552 21.9372 11.2462 21.8772 11.2157C21.8772 11.206 21.8772 11.2157 21.8772 11.171C21.8772 11.1262 21.9103 11.0814 21.9278 11.0308C22.0918 10.584 22.2156 10.1235 22.2976 9.65463C22.4514 8.80328 22.4619 7.93224 22.3288 7.07743C22.2275 6.42145 22.0777 6.03798 22.0543 6.04577C22.0309 6.05356 22.1127 6.4487 22.1711 7.09689C22.3031 8.40134 22.1537 9.71893 21.7331 10.9607C21.7156 11.0133 21.6981 11.0561 21.6806 11.1243C21.6716 11.1646 21.6716 11.2065 21.6806 11.2469C21.6915 11.293 21.7167 11.3346 21.7526 11.3656C21.8084 11.4091 21.8766 11.4336 21.9472 11.4357C22.0053 11.4398 22.0635 11.4359 22.1205 11.424C22.3083 11.3731 22.4795 11.2738 22.6168 11.1359C22.8143 10.9574 22.9801 10.7468 23.1074 10.513C23.1813 10.3476 23.2086 10.2464 23.195 10.2405Z" fill="#C46153"/>
<path d="M23.7573 11.3635C23.7242 11.3635 23.6833 11.4609 23.5841 11.5952C23.4646 11.7715 23.2932 11.9062 23.0936 11.9805C22.8941 12.0548 22.6763 12.065 22.4706 12.0098C22.3071 11.9728 22.2079 11.9222 22.1884 11.9494C22.1689 11.9767 22.2409 12.074 22.4181 12.1597C22.5353 12.2147 22.6622 12.2458 22.7916 12.2511C22.9209 12.2565 23.0501 12.236 23.1714 12.1908C23.4155 12.0987 23.6135 11.9141 23.7223 11.6769C23.8001 11.492 23.7845 11.3674 23.7573 11.3635Z" fill="#C46153"/>
<path d="M20.6937 8.23378C20.6606 8.23378 20.6372 8.54911 20.5535 9.04937C20.5043 9.34077 20.4394 9.62929 20.3589 9.91363C20.3157 10.0723 20.2445 10.2219 20.1486 10.3555C20.1158 10.4261 20.0625 10.4852 19.9956 10.5252C19.9288 10.5652 19.8515 10.5843 19.7737 10.5799C19.6959 10.5755 19.6213 10.5478 19.5594 10.5006C19.4975 10.4533 19.4512 10.3885 19.4265 10.3146C19.3459 10.1673 19.2806 10.012 19.2318 9.85134C19.1347 9.57549 19.0694 9.28944 19.0372 8.99876C18.9846 8.4985 19.0372 8.18317 18.9943 8.17733C18.9515 8.17149 18.8659 8.48293 18.8775 9.00849C18.8878 9.31639 18.9395 9.6215 19.0313 9.91557C19.0833 10.0934 19.1544 10.2651 19.2435 10.4275C19.2945 10.5199 19.3603 10.6034 19.4381 10.6747C19.5286 10.7561 19.6438 10.8048 19.7652 10.8129C19.8863 10.8184 20.0059 10.7843 20.1058 10.7156C20.1947 10.6555 20.2724 10.5804 20.3355 10.4937C20.4444 10.3371 20.523 10.1615 20.5671 9.97591C20.6387 9.67958 20.6881 9.37834 20.7151 9.07467C20.7559 8.56274 20.7229 8.23378 20.6937 8.23378Z" fill="#C46153"/>
<path d="M26.6673 7.47244C26.6323 7.47244 26.6673 7.82477 26.6206 8.37758C26.5936 8.70074 26.5428 9.02149 26.4688 9.33721C26.4289 9.51962 26.3729 9.69811 26.3014 9.87056C26.275 9.95137 26.2272 10.0235 26.1631 10.0794C26.099 10.1353 26.021 10.1727 25.9374 10.1878C25.7568 10.1807 25.5853 10.1064 25.4566 9.97957C25.3189 9.85481 25.2019 9.70894 25.1101 9.54744C24.9497 9.2689 24.8248 8.97136 24.7383 8.66177C24.5923 8.12842 24.5962 7.77805 24.5612 7.77805C24.5261 7.77805 24.4736 8.13232 24.5845 8.69876C24.6517 9.03072 24.7678 9.35085 24.9291 9.64866C25.0258 9.83326 25.1528 10.0004 25.3047 10.1431C25.4759 10.3137 25.7073 10.4102 25.949 10.4117C26.0817 10.4021 26.2067 10.3455 26.3014 10.2521C26.383 10.1685 26.4489 10.0709 26.496 9.964C26.572 9.77569 26.6281 9.57998 26.6634 9.38004C26.7326 9.05226 26.7692 8.71841 26.7724 8.38342C26.7744 7.81309 26.6848 7.46855 26.6673 7.47244Z" fill="#C46153"/>
<path d="M32.9586 9.82993C32.945 9.80657 32.7192 9.89806 32.4175 10.1511C32.0253 10.4857 31.7228 10.9128 31.5372 11.3937C31.3517 11.8746 31.2889 12.3942 31.3547 12.9054C31.4092 13.2947 31.5143 13.5147 31.5493 13.5069C31.5844 13.4991 31.5318 13.2655 31.5201 12.8918C31.5012 12.4081 31.5814 11.9257 31.7558 11.4741C31.9302 11.0225 32.1951 10.6114 32.5343 10.266C32.7854 9.99733 32.9781 9.85913 32.9586 9.82993Z" fill="#C46153"/>
<path d="M31.853 13.1155C31.8666 13.1388 32.0029 13.0921 32.1566 12.9208C32.3547 12.695 32.4592 12.4021 32.4487 12.1018C32.4382 11.8016 32.3136 11.5167 32.1002 11.3052C31.9445 11.1475 31.8179 11.093 31.8004 11.1106C31.7829 11.1281 31.8666 11.2351 31.9776 11.4025C32.1235 11.6092 32.2085 11.8527 32.2228 12.1052C32.2282 12.3584 32.1606 12.6077 32.0282 12.8235C31.9231 12.9987 31.8316 13.0882 31.853 13.1155Z" fill="#C46153"/>
<path d="M32.2344 14.6806C32.9877 14.6806 32.9877 13.5127 32.2344 13.5127C31.4811 13.5127 31.4811 14.6806 32.2344 14.6806Z" fill="#FFF5FF"/>
<g style="mix-blend-mode:multiply" opacity="0.33">
<g style="mix-blend-mode:multiply" opacity="0.33">
<path d="M27.6135 14.237C28.5756 14.237 29.3556 13.457 29.3556 12.4948C29.3556 11.5327 28.5756 10.7527 27.6135 10.7527C26.6513 10.7527 25.8713 11.5327 25.8713 12.4948C25.8713 13.457 26.6513 14.237 27.6135 14.237Z" fill="#FF927D"/>
</g>
<g style="mix-blend-mode:multiply" opacity="0.33">
<path d="M17.7953 11.2686C17.733 11.2686 17.6726 11.2686 17.6123 11.2783C17.6454 11.9206 17.7018 12.563 17.7894 13.1995C17.8507 13.7162 17.9608 14.2258 18.1184 14.7217C18.5438 14.6402 18.9235 14.4031 19.1836 14.0568C19.4437 13.7104 19.5654 13.2796 19.5251 12.8484C19.4847 12.4171 19.2852 12.0164 18.9654 11.7243C18.6455 11.4322 18.2284 11.2697 17.7953 11.2686Z" fill="#FF927D"/>
</g>
</g>
<path d="M31.5494 22.1183C31.343 22.0307 31.1387 21.9392 30.9382 21.8361C30.7289 21.7297 30.5329 21.5991 30.3542 21.4468C29.4077 22.211 28.2181 22.6096 27.0023 22.5699C26.3333 22.5237 25.6857 22.3146 25.116 21.9607C24.5464 21.6069 24.0719 21.119 23.7341 20.5397C23.3423 20.544 22.9511 20.5095 22.5662 20.4365C22.8025 21.1285 23.1813 21.7632 23.6782 22.2997C24.1751 22.8362 24.779 23.2624 25.4509 23.551C26.2619 23.8711 27.1375 23.9933 28.0052 23.9073C28.8728 23.8213 29.7075 23.5297 30.4399 23.0565C30.8462 22.7897 31.2188 22.4747 31.5494 22.1183Z" fill="#9B4471"/>
<g style="mix-blend-mode:multiply" opacity="0.21">
<g style="mix-blend-mode:multiply" opacity="0.21">
<path d="M22.6672 1.49658C23.5996 2.46984 23.769 3.92195 23.9636 5.25727C24.1583 6.59258 24.5145 8.05442 25.6298 8.80968C26.2138 9.19898 26.9223 9.34497 27.6172 9.41504C29.1688 9.56954 30.7355 9.40459 32.2208 8.93036C30.9745 7.81043 30.1277 6.31439 29.809 4.66942" fill="#FF927D"/>
</g>
</g>
<path d="M22.8502 1.25708C23.5743 1.70673 23.9383 2.5632 24.1193 3.39826C24.3004 4.23332 24.3451 5.09757 24.6449 5.89759C25.0553 6.92849 25.807 7.78736 26.7744 8.33075C28.1486 9.13077 29.3944 8.97894 30.8815 9.15024C31.2083 9.20374 31.5416 9.20374 31.8684 9.15024C32.0304 9.12867 32.184 9.06552 32.3143 8.96693C32.4447 8.86835 32.5472 8.73769 32.612 8.58769C31.6524 7.78767 31.9054 7.11223 31.4285 6.03774C30.8952 4.83869 29.9589 3.85764 28.9233 3.07708C27.1715 1.76318 24.9427 0.935904 22.8054 1.37776" fill="#CE534A"/>
<path d="M28.4407 6.48752C29.0246 7.42964 29.6086 8.38343 29.957 9.43066C30.3055 10.4779 30.4222 11.6439 30.0505 12.6833C29.7643 13.4814 29.2173 14.1529 28.7015 14.8245C28.1857 15.496 27.6796 16.2124 27.5025 17.0416C27.3253 17.8708 27.5531 18.8402 28.2577 19.3112C28.6782 19.5935 29.2037 19.6596 29.7079 19.7005C31.3945 19.8627 33.0912 19.8926 34.7825 19.7901C33.9766 19.2684 33.1591 18.737 32.5303 18.0129C31.9016 17.2888 31.4773 16.3272 31.6077 15.3773C31.6875 14.7817 31.9756 14.2347 32.1099 13.6488C32.3396 12.658 32.1099 11.6108 31.7323 10.6706C31.5376 10.1976 31.2923 9.67398 31.4714 9.19319C31.5726 8.92262 31.7926 8.71629 31.9444 8.47103C32.0895 8.22969 32.1658 7.95325 32.1651 7.67165C32.1644 7.39005 32.0866 7.11402 31.9403 6.87344C31.7939 6.63285 31.5845 6.43689 31.3348 6.30677C31.0851 6.17664 30.8045 6.11731 30.5235 6.1352" fill="#CE534A"/>
<path d="M4.14994 17.0514H4.11101C4.07296 17.0464 4.03628 17.0338 4.00309 17.0145C3.96991 16.9952 3.94089 16.9695 3.91772 16.9389C3.89454 16.9083 3.87767 16.8734 3.86808 16.8363C3.85849 16.7991 3.85638 16.7604 3.86186 16.7224L4.48669 12.0663C4.4969 11.9908 4.5362 11.9223 4.5962 11.8754C4.6562 11.8285 4.73216 11.8069 4.80787 11.8152L8.31161 12.1812C8.34996 12.1851 8.38714 12.1966 8.42105 12.2149C8.45496 12.2333 8.48493 12.2581 8.50924 12.288C8.53355 12.3179 8.55173 12.3523 8.56274 12.3893C8.57375 12.4262 8.57738 12.465 8.57342 12.5033C8.56946 12.5417 8.55798 12.5788 8.53965 12.6128C8.52132 12.6467 8.49648 12.6766 8.46657 12.7009C8.43665 12.7252 8.40224 12.7434 8.3653 12.7544C8.32836 12.7655 8.28961 12.7691 8.25127 12.7651L5.02783 12.4186L4.44387 16.7983C4.43435 16.8692 4.39917 16.9341 4.34499 16.9807C4.29082 17.0273 4.22142 17.0525 4.14994 17.0514Z" fill="#9B4471"/>
<path d="M6.8812 26.879H1.75211C1.64592 26.8789 1.54369 26.8387 1.46578 26.7666C1.38786 26.6944 1.33998 26.5956 1.33166 26.4897L0.358398 16.4788H8.27491L7.30165 26.4897C7.29333 26.5956 7.24545 26.6944 7.16753 26.7666C7.08962 26.8387 6.98739 26.8789 6.8812 26.879Z" fill="#FB93AF"/>
<path d="M4.31936 24.7851C5.78678 24.7851 6.97637 23.4448 6.97637 21.7914C6.97637 20.138 5.78678 18.7976 4.31936 18.7976C2.85194 18.7976 1.66235 20.138 1.66235 21.7914C1.66235 23.4448 2.85194 24.7851 4.31936 24.7851Z" fill="#E27798"/>
<g style="mix-blend-mode:multiply" opacity="0.18">
<g style="mix-blend-mode:multiply" opacity="0.18">
<path d="M7.54475 23.843C6.77587 23.3155 5.88826 22.9962 5.0532 22.5777C4.21814 22.1592 3.40449 21.6045 2.96652 20.783C2.73992 20.318 2.59756 19.8165 2.54607 19.3017C2.42371 18.3665 2.43682 17.4185 2.585 16.4871H0.365967L1.33923 26.498C1.34755 26.6039 1.39543 26.7027 1.47335 26.7749C1.55126 26.847 1.65349 26.8872 1.75968 26.8873H6.88098C6.98683 26.8867 7.08858 26.8463 7.16608 26.7742C7.24359 26.7021 7.2912 26.6036 7.29949 26.498L7.55837 23.8527C7.55311 23.8506 7.54844 23.8473 7.54475 23.843Z" fill="#FB93AF"/>
</g>
</g>
<path d="M8.36032 16.0625H0.2803C0.125494 16.0625 0 16.188 0 16.3428V17.2421C0 17.3969 0.125494 17.5224 0.2803 17.5224H8.36032C8.51513 17.5224 8.64062 17.3969 8.64062 17.2421V16.3428C8.64062 16.188 8.51513 16.0625 8.36032 16.0625Z" fill="#E27798"/>
<path d="M8.91112 26.0018C8.54645 24.8431 8.09956 23.7118 7.57386 22.6168C7.2702 21.988 6.92566 21.3807 6.31835 20.9992C5.94072 20.7637 5.35482 20.5515 5.45993 21.1647C5.50665 21.4372 5.95824 21.733 6.1198 21.9433C6.40228 22.2882 6.60739 22.6898 6.72128 23.1209C7.00742 24.3297 6.22881 25.3594 6.25801 26.5643C6.27163 27.4169 6.65899 28.3162 7.42592 28.7055" fill="#FF927D"/>
<path d="M18.241 25.3223C22.0993 25.3223 25.227 24.9528 25.227 24.497C25.227 24.0411 22.0993 23.6716 18.241 23.6716C14.3827 23.6716 11.2549 24.0411 11.2549 24.497C11.2549 24.9528 14.3827 25.3223 18.241 25.3223Z" fill="#C98E36"/>
<path d="M19.7338 26.0966C19.3487 25.6813 19.1244 25.1423 19.1012 24.5764C19.0316 23.8908 19.1837 23.201 19.5353 22.6084C19.6256 22.4607 19.7497 22.3367 19.8973 22.2464C19.9718 22.2022 20.0554 22.1755 20.1418 22.1684C20.2281 22.1613 20.3149 22.174 20.3956 22.2055C20.5152 22.2693 20.6154 22.3641 20.6857 22.48C21.0362 23.0283 21.1572 23.6924 21.0224 24.3291C20.8845 24.9569 20.5989 25.5428 20.1893 26.0382" fill="#A4B24A"/>
<path d="M20.3315 24.7887C20.4872 24.6758 20.6974 24.5162 20.9271 24.3352L21.0245 24.2593C21.0245 24.2281 21.0245 24.197 21.0381 24.1658C20.9875 24.2022 20.9369 24.2411 20.8863 24.2826C20.6566 24.4617 20.4502 24.6272 20.3023 24.7498C20.2249 24.8106 20.1508 24.8756 20.0804 24.9444C20.0921 24.7693 20.1018 24.5824 20.1057 24.3877C20.1057 24.1464 20.1057 23.9167 20.1057 23.7084C20.1466 23.6792 20.2225 23.6169 20.3237 23.5293L20.9077 23.0271L20.9408 22.9979C20.9341 22.9748 20.9264 22.9521 20.9174 22.9298L20.8629 22.9746C20.6352 23.1692 20.4347 23.3639 20.2926 23.4943C20.2069 23.578 20.1427 23.6422 20.0979 23.6889C20.0979 23.4943 20.0823 23.321 20.0726 23.1731C20.0629 23.0252 20.0493 22.8928 20.0376 22.8052C20.0342 22.7598 20.0264 22.7148 20.0142 22.6709C20.0078 22.7161 20.0078 22.762 20.0142 22.8072C20.0142 22.9415 20.0142 23.0641 20.0278 23.177C20.0278 23.321 20.0278 23.4943 20.0395 23.6831C19.9247 23.5858 19.6385 23.3678 19.2843 23.1108L19.2609 23.175C19.623 23.4339 19.9208 23.6403 20.0395 23.7123C20.0395 23.9206 20.0395 24.1503 20.0395 24.3916C20.0395 24.5863 20.0278 24.7634 20.0201 24.9347C19.9928 24.9075 19.878 24.8315 19.7106 24.7167C19.5432 24.6018 19.3212 24.4617 19.0935 24.2962V24.3761C19.3193 24.5298 19.5237 24.6602 19.6775 24.7654C19.7844 24.835 19.8963 24.8968 20.0123 24.9503C19.9986 25.2033 19.9831 25.4291 19.9675 25.614L19.9383 25.9819C19.9383 26.0228 19.9383 26.054 19.9383 26.0773H19.9519C19.9593 26.0484 19.9651 26.0192 19.9694 25.9897C19.985 25.9021 20.0025 25.7776 20.0201 25.6218C20.0376 25.4661 20.0648 25.2208 20.0804 24.9717C20.1687 24.9172 20.2526 24.856 20.3315 24.7887Z" fill="#8D963D"/>
<path d="M23.5628 24.1659C23.5628 24.3605 23.6271 24.5552 23.6563 24.7674C23.7477 25.4156 23.1638 25.9762 22.5409 26.054C22.1652 26.1027 21.7798 25.9917 21.41 26.0657C21.2032 26.1072 21.012 26.2048 20.8571 26.3479C20.7359 26.4699 20.655 26.6262 20.6255 26.7956C20.6041 26.7781 20.3063 26.5543 20.2985 26.5874C20.4365 26.1229 20.4159 25.6257 20.2401 25.1742C20.0318 24.7206 19.9909 23.9459 20.3121 23.5313C20.4341 23.3799 20.5911 23.2603 20.7696 23.1829C20.937 23.105 21.1044 23.1381 21.2679 23.0719C21.7311 22.8773 21.9569 22.1201 22.2197 21.7366C22.4825 21.3532 22.864 21.0184 23.3214 21.0067C23.5059 21.0043 23.688 21.0485 23.8509 21.1352C24.6295 21.5245 24.0806 22.5503 23.8256 23.142C23.7033 23.4062 23.6175 23.6858 23.5706 23.9732C23.5632 24.0371 23.5606 24.1016 23.5628 24.1659Z" fill="#78894A"/>
<path d="M22.9905 25.1861C23.2222 25.1569 23.4421 25.1238 23.6465 25.0907C23.6465 25.0654 23.6465 25.0381 23.6601 25.0128L22.9808 25.1063C22.4611 25.1744 21.99 25.2269 21.6474 25.2639L21.1569 25.3204C21.3087 25.0206 21.4781 24.7033 21.665 24.3744C21.8518 24.0454 22.0543 23.7106 22.2489 23.4186C22.3151 23.4186 22.4241 23.4011 22.5681 23.3816C22.8056 23.3486 23.1307 23.294 23.4889 23.222L23.8237 23.15L23.8587 23.0702L23.4694 23.15L22.5545 23.333L22.2645 23.3953C22.4922 23.0468 22.7063 22.7373 22.8893 22.4862C23.0723 22.2351 23.1988 22.0638 23.2981 21.9354C23.3522 21.8752 23.4004 21.81 23.4421 21.7407C23.3802 21.8006 23.3235 21.8657 23.2728 21.9354C23.1657 22.058 23.0197 22.241 22.8426 22.4726C22.6655 22.7043 22.4338 23.0254 22.2022 23.3739C22.2022 23.3096 22.1808 23.2045 22.1613 23.0663C22.1282 22.8347 22.0854 22.5154 22.0484 22.1612C22.0484 22.132 22.0484 22.1028 22.0484 22.0716L21.9803 22.2059C22.0173 22.5466 22.0679 22.8541 22.1127 23.076C22.1457 23.2318 22.173 23.3447 22.1925 23.4011C21.9978 23.695 21.8032 24.0162 21.6085 24.3627C21.4139 24.7092 21.2503 25.0148 21.1005 25.3184C21.0868 25.2425 21.0596 25.1238 21.0246 24.9564C20.9662 24.68 20.8844 24.3004 20.8046 23.878C20.7618 23.6561 20.7248 23.4478 20.6917 23.2571C20.6683 23.2695 20.6456 23.2832 20.6236 23.2979C20.6508 23.4809 20.6859 23.6872 20.7248 23.8819C20.8065 24.3062 20.8961 24.6878 20.97 24.9603C21.0187 25.1413 21.0596 25.2737 21.0849 25.3496C20.8902 25.7389 20.7345 26.099 20.6138 26.3968C20.5671 26.5117 20.5262 26.6148 20.4893 26.7102L20.5282 26.7375L20.6644 26.4182C20.7949 26.1204 20.9623 25.7603 21.1608 25.3671H21.2601C21.3555 25.3671 21.4956 25.3671 21.6669 25.3476C21.9959 25.3029 22.4689 25.2561 22.9905 25.1861Z" fill="#647039"/>
<path d="M17.0846 26.2602C17.7241 25.8019 18.1801 25.1314 18.3713 24.3682C18.6205 23.4747 18.6789 22.4333 18.3285 21.5671C18.2471 21.3408 18.1138 21.1368 17.9392 20.9715C17.8508 20.8898 17.7447 20.8297 17.6292 20.7959C17.5137 20.7622 17.3919 20.7556 17.2735 20.7768C17.0928 20.8306 16.9301 20.9321 16.8024 21.0708C16.1742 21.7175 15.8248 22.5848 15.8291 23.4864C15.8414 24.3792 16.067 25.2562 16.4871 26.0441" fill="#A4B24A"/>
<path d="M16.635 24.3118C16.4579 24.1172 16.2146 23.8369 15.9518 23.5332L15.8428 23.4028C15.8428 23.358 15.8428 23.3132 15.8428 23.2685L16.018 23.4631C16.2807 23.7726 16.5143 24.0471 16.6798 24.2631C16.7679 24.369 16.8505 24.4795 16.927 24.5941C16.9601 24.3527 17.001 24.0977 17.0477 23.831C17.108 23.5001 17.1742 23.1887 17.2423 22.9064C17.1956 22.8539 17.11 22.7487 16.9971 22.6028L16.3508 21.758L16.3138 21.7112C16.3314 21.682 16.3469 21.6509 16.3644 21.6237L16.4248 21.7015C16.6798 22.0324 16.9017 22.34 17.0574 22.5677C17.1508 22.704 17.219 22.811 17.2521 22.8753C17.3143 22.6144 17.3766 22.3789 17.4311 22.1823C17.4856 21.9857 17.5421 21.8047 17.581 21.6898C17.5967 21.6286 17.6202 21.5697 17.6511 21.5146C17.6484 21.5808 17.6366 21.6463 17.6161 21.7093C17.5732 21.8884 17.5324 22.0558 17.4954 22.2076C17.4487 22.4023 17.3942 22.6358 17.3377 22.8947C17.5324 22.7935 17.9742 22.5775 18.527 22.3244C18.527 22.3555 18.527 22.3867 18.5407 22.4198C17.9762 22.6709 17.5129 22.8675 17.3299 22.9317C17.2676 23.2159 17.2053 23.5293 17.1353 23.8602C17.0885 24.1191 17.0477 24.3683 17.0107 24.6038C17.0574 24.5746 17.2326 24.5026 17.4934 24.3936C17.7543 24.2846 18.0774 24.1522 18.4511 23.9926L18.4278 24.1035C18.0793 24.2476 17.762 24.3683 17.5168 24.4558C17.3508 24.5193 17.1812 24.5726 17.0087 24.6155C16.9562 24.9619 16.9153 25.2753 16.8842 25.5303C16.8647 25.6841 16.8452 25.8554 16.8219 26.0384C16.8219 26.0948 16.8083 26.1376 16.8044 26.1688H16.7829C16.7829 26.1376 16.7829 26.0948 16.7829 26.0423C16.7829 25.9216 16.7966 25.7444 16.8141 25.5284C16.8355 25.2773 16.8686 24.9697 16.9153 24.6271C16.8152 24.5282 16.7216 24.4228 16.635 24.3118Z" fill="#8D963D"/>
<path d="M13.2714 24.0823C13.2714 24.2769 13.2111 24.4463 13.1838 24.6409C13.1001 25.2424 13.6413 25.7582 14.2174 25.8322C14.5659 25.877 14.9221 25.7738 15.2647 25.8419C15.4562 25.881 15.6332 25.9719 15.7766 26.1047C15.9304 26.2449 15.9265 26.3442 15.9927 26.5193C16.0102 26.5018 16.2866 26.2955 16.2944 26.3247C16.1669 25.8947 16.186 25.4345 16.3489 25.0166C16.5435 24.5981 16.5786 23.8799 16.2807 23.4964C16.1682 23.3561 16.0232 23.2452 15.8583 23.1733C15.7026 23.1012 15.5469 23.1304 15.3951 23.0701C14.9688 22.8988 14.7586 22.1883 14.5152 21.8341C14.2719 21.4798 13.9196 21.1683 13.4953 21.1586C13.3243 21.1555 13.1554 21.1964 13.0047 21.2773C12.2787 21.6472 12.7926 22.5874 13.0281 23.1363C13.1421 23.3803 13.2214 23.6391 13.2636 23.9052C13.271 23.9639 13.2736 24.0231 13.2714 24.0823Z" fill="#78894A"/>
<path d="M13.801 25.0282C13.5869 25.0009 13.3825 24.9698 13.1937 24.9387C13.1937 24.9153 13.1937 24.8919 13.182 24.8666C13.3766 24.8958 13.5888 24.925 13.8107 24.9542C14.2915 25.0185 14.7295 25.0671 15.0448 25.1002C15.2628 25.1236 15.4205 25.1411 15.5003 25.1528C15.3602 24.8744 15.2025 24.5805 15.0292 24.2768C14.856 23.9732 14.6633 23.6617 14.4881 23.3912C14.4278 23.3912 14.3246 23.3756 14.1922 23.3561C13.9723 23.325 13.6706 23.2763 13.3397 23.2082L13.0302 23.144L12.9971 23.07L13.3572 23.144L14.202 23.3114L14.4725 23.3698C14.2623 23.0466 14.0638 22.7605 13.8886 22.5289C13.7134 22.2972 13.6005 22.1396 13.4993 22.0189C13.4489 21.958 13.404 21.8929 13.365 21.8242C13.422 21.8777 13.4747 21.9357 13.5226 21.9975C13.6219 22.1104 13.7582 22.2797 13.9119 22.4938C14.0657 22.7079 14.2896 23.0058 14.4959 23.3289C14.4959 23.2685 14.5173 23.1712 14.5348 23.0427C14.566 22.8286 14.6049 22.5347 14.638 22.2057C14.638 22.1785 14.638 22.1512 14.638 22.124L14.7003 22.2466C14.6652 22.5639 14.6185 22.8481 14.5776 23.0525C14.5465 23.1965 14.5212 23.3016 14.5037 23.3542C14.6828 23.6248 14.8696 23.9226 15.0526 24.2437C15.2356 24.5649 15.3855 24.8491 15.5237 25.1294C15.5373 25.0593 15.5606 24.9348 15.5937 24.7946C15.6482 24.5377 15.7242 24.1854 15.7981 23.7941C15.8371 23.5994 15.8721 23.4048 15.9013 23.2101L15.9655 23.2471C15.9402 23.4184 15.9091 23.6033 15.8721 23.7999C15.7962 24.1892 15.7125 24.5435 15.6443 24.7966C15.5996 24.964 15.5626 25.0866 15.5392 25.1508C15.7164 25.5109 15.8624 25.8438 15.9753 26.1241C16.0181 26.2292 16.0551 26.3187 16.0901 26.4141L16.0531 26.4394C16.0161 26.3499 15.9733 26.2448 15.9266 26.1436C15.8059 25.8672 15.6521 25.5343 15.4672 25.1703H15.4166C15.3271 25.1703 15.1986 25.1703 15.0409 25.1528C14.7217 25.1314 14.2837 25.0924 13.801 25.0282Z" fill="#647039"/>
<path d="M25.2269 24.5066C25.1783 24.9562 22.0716 25.3202 18.2448 25.3202C14.5658 25.3202 11.5526 24.9835 11.282 24.5572C11.2159 26.6283 11.8932 28.8201 12.993 30.5564C13.0708 30.6938 13.1738 30.8153 13.2967 30.9145C13.4359 31.0026 13.5915 31.0616 13.7541 31.0878C15.2319 31.4119 16.7443 31.5505 18.2564 31.5005C19.7685 31.5505 21.2809 31.4119 22.7587 31.0878C22.9201 31.0712 23.0745 31.0137 23.2073 30.9207C23.3402 30.8277 23.4471 30.7023 23.5179 30.5564C24.6255 28.8065 25.3048 26.5933 25.2269 24.5066Z" fill="#F7BF54"/>
<path d="M11.3853 26.2758C11.3969 26.3478 11.4067 26.4179 11.4183 26.4899C15.9669 26.9961 20.5592 26.9648 25.1005 26.3965C25.1121 26.3245 25.1238 26.2524 25.1336 26.1804C20.5708 26.7581 15.9555 26.7901 11.3853 26.2758Z" fill="#E2A744"/>
<path d="M11.6404 27.4789C11.6793 27.6249 11.7221 27.769 11.7669 27.913C16.0898 28.3657 20.4498 28.3344 24.7658 27.8196C24.8106 27.6755 24.8514 27.5315 24.8904 27.3855C20.4918 27.9226 16.0461 27.954 11.6404 27.4789Z" fill="#E2A744"/>
<path d="M12.2632 29.196C12.2963 29.27 12.3313 29.3439 12.3663 29.416C16.2987 29.7901 20.259 29.762 24.1856 29.3323L24.2869 29.1104C20.2928 29.5553 16.2632 29.584 12.2632 29.196Z" fill="#E2A744"/>
<g style="mix-blend-mode:multiply" opacity="0.22">
<g style="mix-blend-mode:multiply" opacity="0.22">
<path d="M23.2123 30.9164C23.3351 30.8177 23.4375 30.696 23.514 30.5583C23.6697 30.313 23.8157 30.0599 23.952 29.7991C21.7368 29.8653 19.4633 30.3344 17.4798 29.4098C17.0625 29.2127 16.6704 28.9663 16.3118 28.676C15.2072 27.77 14.4181 26.5372 14.0578 25.1547C12.5005 25.0146 11.4339 24.8004 11.2781 24.5552C11.2119 26.6263 11.8893 28.8181 12.9891 30.5544C13.0669 30.6918 13.1699 30.8133 13.2928 30.9125C13.432 31.0006 13.5876 31.0595 13.7502 31.0858C15.228 31.4099 16.7404 31.5485 18.2525 31.4984C19.7646 31.5485 21.277 31.4099 22.7548 31.0858C22.9172 31.0607 23.0728 31.0031 23.2123 30.9164Z" fill="#E2A744"/>
</g>
</g>
<path d="M37.93 35.302C37.9611 31.8976 37.3597 28.4444 35.6467 25.4624C35.0102 24.3528 33.5853 23.3406 32.3571 24.2594C31.4403 24.9446 31.1658 26.3208 30.9945 27.3738C30.7918 28.7525 30.7298 30.1482 30.8096 31.5394C30.8622 32.6723 31.0626 33.4451 30.5429 34.5624C30.2179 35.2592 29.9959 35.3196 29.2329 35.2086C28.2908 35.0743 27.481 34.502 26.681 34.0407C26.3501 33.846 23.5666 31.6698 23.4459 31.7555C22.1694 32.6039 21.0366 33.6507 20.0901 34.8563C21.6021 37.3618 23.6927 39.4684 26.1866 40.9995C28.1935 42.255 30.5215 43.4638 32.9333 43.5592C34.0292 43.604 35.635 43.456 36.4136 42.5704C38.0818 40.6803 37.9086 37.6379 37.93 35.302Z" fill="#FF927D"/>
<g style="mix-blend-mode:multiply" opacity="0.21">
<g style="mix-blend-mode:multiply" opacity="0.21">
<path d="M30.5994 34.4513C32.0729 35.2708 33.9454 35.4245 35.5747 35.4343C36.3533 35.4343 37.1384 35.4025 37.93 35.3389V35.3116C37.9592 32.1291 37.4336 28.9017 35.9659 26.0579L30.8096 31.5198V31.5568C30.8602 32.6352 31.0451 33.3924 30.5994 34.4513Z" fill="#FF927D"/>
</g>
</g>
<path d="M34.7924 33.7017C35.4718 33.6138 36.1408 33.4586 36.7895 33.2384C36.9549 33.18 38.4479 32.4773 38.444 32.4443C38.3331 31.7571 38.1034 30.9707 38.0139 30.634C37.6894 29.396 37.3241 28.1736 36.918 26.9667C36.4294 25.5127 35.9447 24.2416 34.6094 23.6421C33.3656 23.0815 32.149 23.4202 31.3003 24.6153C30.693 25.4699 30.4613 26.7117 30.3445 27.7804C30.1499 29.5809 29.9397 31.5683 30.0058 33.3825C31.4706 33.8493 33.0232 33.9725 34.5432 33.7426L34.7924 33.7017Z" fill="#9B4471"/>
<path d="M21.6824 36.9038C20.9038 36.4406 20.458 35.5841 20.0687 34.8055C19.6093 33.8848 19.3232 32.7869 19.5918 31.7689C19.8857 30.6516 20.822 29.6842 20.7208 28.5318C20.6702 27.9479 20.3432 27.3522 20.5262 26.7916C20.7539 26.6982 20.9622 26.961 21.0556 27.1809C21.5101 28.2849 21.5665 29.5125 21.2152 30.6535C21.3262 30.2973 21.6532 29.9547 21.7992 29.5868C22.101 28.7624 22.1611 27.869 21.9724 27.0116C21.9199 26.778 21.6551 26.2914 21.9471 26.1201C22.3364 25.8904 22.714 26.8617 22.788 27.1323C23.0952 28.2382 23.0784 29.409 22.7393 30.5056C23.518 29.873 23.6464 28.7537 23.7126 27.7532C23.7379 27.3834 23.7126 27.0135 23.7321 26.6437C23.7554 26.342 23.8022 25.6529 24.1545 25.978C24.6625 26.4471 24.5438 27.1732 24.5087 27.7883C24.4508 28.5955 24.3508 29.3993 24.209 30.1961C24.7929 29.7834 24.6995 28.8024 25.2698 28.3722C25.29 28.3547 25.3135 28.3415 25.3389 28.3335C25.3644 28.3254 25.3912 28.3227 25.4178 28.3255C25.4403 28.3338 25.4607 28.3467 25.4779 28.3635C25.495 28.3803 25.5083 28.4005 25.517 28.4228C25.772 28.8919 25.5579 29.3241 25.3555 29.7465C25.081 30.3304 24.8572 30.9261 24.608 31.5139C24.4861 31.7337 24.4383 31.987 24.4718 32.2361C24.5594 32.5884 24.935 32.7714 25.2504 32.9543C25.5622 33.1374 25.8471 33.3627 26.0971 33.6239" fill="#FF927D"/>
</svg>
