<svg width="33" height="41" viewBox="0 0 33 41" fill="none" xmlns="http://www.w3.org/2000/svg">
<g clip-path="url(#clip0_414_5791)">
<g opacity="0.3">
<path opacity="0.3" d="M8.21241 24.7038H8.19251L7.42841 24.4817C7.40219 24.4735 7.38016 24.4552 7.36704 24.4306C7.35391 24.4061 7.35074 24.3772 7.35821 24.3503C7.36567 24.3234 7.38317 24.3005 7.40696 24.2866C7.43074 24.2727 7.45892 24.2689 7.48545 24.2759L8.24425 24.4953C8.26831 24.5033 8.2887 24.52 8.30166 24.5422C8.31461 24.5644 8.31926 24.5906 8.31473 24.6161C8.3102 24.6415 8.2968 24.6644 8.27702 24.6805C8.25723 24.6966 8.2324 24.7049 8.2071 24.7038H8.21241Z" fill="black"/>
<path opacity="0.3" d="M7.42845 25.305C7.40682 25.303 7.38632 25.2943 7.36971 25.28C7.35311 25.2657 7.3412 25.2466 7.33559 25.2252C7.3314 25.2111 7.3301 25.1963 7.33175 25.1817C7.3334 25.1672 7.33798 25.1531 7.3452 25.1404C7.35242 25.1277 7.36212 25.1166 7.3737 25.1079C7.38529 25.0992 7.3985 25.093 7.41253 25.0898L8.17663 24.8921C8.20314 24.8862 8.23084 24.8911 8.25391 24.9057C8.27697 24.9202 8.2936 24.9434 8.3003 24.9702C8.307 24.997 8.30325 25.0255 8.28983 25.0495C8.27642 25.0736 8.25439 25.0914 8.22837 25.0992L7.46294 25.2969C7.45198 25.3016 7.44032 25.3044 7.42845 25.305Z" fill="black"/>
<path opacity="0.3" d="M7.81847 26.0254C7.7933 26.0229 7.76982 26.0114 7.75214 25.9929C7.73278 25.9729 7.72192 25.9459 7.72192 25.9178C7.72192 25.8896 7.73278 25.8626 7.75214 25.8426L8.31726 25.2807C8.32688 25.2699 8.33856 25.2612 8.35159 25.2551C8.36462 25.2491 8.37873 25.2459 8.39303 25.2456C8.40734 25.2454 8.42154 25.2481 8.43477 25.2537C8.448 25.2592 8.45997 25.2675 8.46995 25.278C8.47993 25.2884 8.4877 25.3009 8.49279 25.3145C8.49788 25.3282 8.50018 25.3427 8.49955 25.3573C8.49892 25.3719 8.49536 25.3862 8.48911 25.3993C8.48285 25.4125 8.47403 25.4242 8.46318 25.4337L7.90072 25.9983C7.88959 26.0084 7.87654 26.016 7.86238 26.0207C7.84822 26.0253 7.83327 26.027 7.81847 26.0254Z" fill="black"/>
<path opacity="0.3" d="M8.50417 26.4519H8.48427C8.47072 26.4481 8.45807 26.4415 8.44708 26.4325C8.43609 26.4235 8.42699 26.4124 8.4203 26.3998C8.41362 26.3871 8.40949 26.3732 8.40817 26.3589C8.40686 26.3446 8.40837 26.3302 8.41264 26.3165L8.62223 25.542C8.63025 25.5152 8.64821 25.4928 8.67228 25.4794C8.69635 25.466 8.7246 25.4627 8.75098 25.4703C8.77736 25.478 8.79976 25.4958 8.81339 25.5201C8.82701 25.5444 8.83078 25.5732 8.82387 25.6002L8.60897 26.3748C8.60246 26.3977 8.58861 26.4178 8.56961 26.4318C8.55061 26.4458 8.52757 26.4529 8.50417 26.4519Z" fill="black"/>
</g>
<path d="M29.2281 14.4276L27.3272 15.5447L23.1644 16.1595C23.1644 16.1595 20.1252 11.4988 19.6596 10.7662C19.194 10.0337 18.6488 9.56383 17.3872 9.56519L17.626 13.2834C17.6658 13.404 20.1823 16.5684 21.8418 18.2935C22.4282 18.9015 22.7877 19.0572 23.699 18.7972C26.0377 18.1351 28.8726 16.173 29.1008 15.6828C29.4072 15.0424 29.2056 14.4412 29.2281 14.4276Z" fill="#FFEDE5"/>
<path d="M28.4463 12.0704C28.6957 11.239 29.7145 10.562 30.6603 10.8328C30.8101 10.8751 30.9538 10.9374 31.0875 11.0183C32.0161 11.5599 32.755 12.8801 32.755 13.9661C32.758 14.1495 32.733 14.3322 32.6807 14.5077C32.4326 15.3378 31.4165 16.0202 30.4667 15.748C30.3171 15.7052 30.1735 15.6428 30.0395 15.5625C29.1189 15.0209 28.372 13.6993 28.372 12.6134C28.3693 12.4296 28.3944 12.2464 28.4463 12.0704Z" fill="#455A64"/>
<path d="M30.041 15.5543C29.1204 15.0127 28.3735 13.6911 28.3735 12.6052C28.3735 11.5192 29.1204 11.0805 30.041 11.6221C30.9617 12.1638 31.7045 13.484 31.7045 14.5699C31.7045 15.6559 30.9617 16.096 30.041 15.5543Z" fill="#37474F"/>
<path d="M30.041 12.8258C29.6868 12.6173 29.3989 12.7866 29.3989 13.2036C29.411 13.431 29.4754 13.6522 29.587 13.8494C29.6985 14.0465 29.8541 14.2141 30.041 14.3383C30.3952 14.5469 30.6817 14.3776 30.6817 13.9605C30.6699 13.7333 30.6057 13.5121 30.4944 13.3149C30.3831 13.1177 30.2277 12.9502 30.041 12.8258Z" fill="#455A64"/>
<path d="M29.8209 13.4531C29.8251 13.5309 29.8473 13.6067 29.8855 13.6742C29.9238 13.7417 29.9771 13.7991 30.0411 13.8417C30.0621 13.8571 30.0866 13.8671 30.1122 13.8706C30.1379 13.8742 30.1641 13.8712 30.1883 13.862L30.2043 13.8525C30.2232 13.8359 30.2381 13.815 30.2478 13.7915C30.2575 13.768 30.2617 13.7425 30.26 13.7171C30.2558 13.6394 30.2338 13.5637 30.1958 13.4963C30.1578 13.4288 30.1048 13.3713 30.0411 13.3285C30.0201 13.313 29.9956 13.3031 29.97 13.2995C29.9443 13.296 29.9181 13.299 29.8939 13.3082L29.8779 13.3177C29.8586 13.334 29.8434 13.3548 29.8335 13.3784C29.8236 13.4019 29.8193 13.4275 29.8209 13.4531Z" fill="#37474F"/>
<path d="M26.2987 15.5288C26.3028 15.6066 26.3248 15.6823 26.3628 15.7498C26.4008 15.8173 26.4539 15.8747 26.5176 15.9175C26.5461 15.9362 26.5792 15.9465 26.6131 15.9472C26.6389 15.9467 26.6641 15.9393 26.6861 15.9256L30.1882 13.862L30.2041 13.8525C30.2231 13.8359 30.238 13.815 30.2477 13.7915C30.2574 13.768 30.2615 13.7425 30.2599 13.7171C30.2557 13.6394 30.2337 13.5637 30.1957 13.4963C30.1576 13.4288 30.1047 13.3713 30.041 13.3285C30.02 13.313 29.9955 13.3031 29.9698 13.2995C29.9442 13.296 29.918 13.299 29.8937 13.3082L29.8778 13.3177L26.3757 15.3812C26.3505 15.396 26.33 15.4176 26.3164 15.4437C26.3028 15.4698 26.2967 15.4993 26.2987 15.5288Z" fill="#FAFAFA"/>
<path d="M22.8618 15.3623C23.1099 14.5322 24.126 13.8457 25.0758 14.1179C25.2258 14.161 25.3697 14.2233 25.5043 14.3034C26.4249 14.845 27.1718 16.1666 27.1718 17.2526C27.1741 17.4359 27.149 17.6185 27.0975 17.7942C26.8481 18.6242 25.8333 19.3067 24.8835 19.0359C24.734 18.9928 24.5904 18.9304 24.4563 18.8504C23.5357 18.3087 22.7888 16.9872 22.7888 15.9026C22.7858 15.7197 22.8104 15.5375 22.8618 15.3623Z" fill="#455A64"/>
<path d="M24.4548 18.8448C23.5342 18.3032 22.7874 16.9816 22.7874 15.897C22.7874 14.8124 23.5342 14.371 24.4548 14.9126C25.3755 15.4543 26.1223 16.7758 26.1223 17.8618C26.1223 18.9477 25.3768 19.3878 24.4548 18.8448Z" fill="#37474F"/>
<path d="M24.4547 16.1138C24.1005 15.9039 23.814 16.0732 23.814 16.4916C23.826 16.7186 23.8902 16.9395 24.0016 17.1365C24.1129 17.3334 24.2681 17.5007 24.4547 17.6249C24.8089 17.8335 25.0968 17.6642 25.0968 17.2471C25.0845 17.02 25.02 16.7991 24.9084 16.6021C24.7969 16.4052 24.6414 16.2379 24.4547 16.1138Z" fill="#455A64"/>
<path d="M24.2359 16.7431C24.24 16.8209 24.262 16.8965 24.3 16.964C24.338 17.0315 24.3911 17.089 24.4548 17.1317C24.4758 17.1472 24.5003 17.1571 24.5259 17.1607C24.5516 17.1642 24.5778 17.1612 24.6021 17.152C24.6079 17.15 24.6133 17.1468 24.618 17.1426C24.6372 17.1261 24.6524 17.1053 24.6623 17.0818C24.6722 17.0583 24.6765 17.0327 24.675 17.0071C24.6707 16.9293 24.6485 16.8536 24.6102 16.7861C24.572 16.7186 24.5187 16.6612 24.4548 16.6185C24.4338 16.6035 24.4096 16.5939 24.3841 16.5906C24.3587 16.5873 24.3329 16.5904 24.3089 16.5996L24.293 16.6091C24.2737 16.6252 24.2585 16.6457 24.2486 16.669C24.2386 16.6923 24.2343 16.7177 24.2359 16.7431Z" fill="#37474F"/>
<path d="M23.7052 17.0615C23.709 17.1393 23.7308 17.2151 23.7689 17.2827C23.8069 17.3502 23.8601 17.4076 23.9241 17.4501C23.9526 17.4689 23.9857 17.4792 24.0196 17.4799C24.0454 17.4793 24.0705 17.4718 24.0926 17.4582L24.602 17.1576C24.6079 17.1556 24.6133 17.1524 24.6179 17.1482C24.6371 17.1317 24.6523 17.1109 24.6622 17.0874C24.6721 17.0639 24.6765 17.0383 24.675 17.0128C24.6706 16.9349 24.6484 16.8592 24.6102 16.7917C24.5719 16.7242 24.5187 16.6668 24.4547 16.6241C24.4338 16.6091 24.4095 16.5996 24.3841 16.5963C24.3587 16.593 24.3328 16.596 24.3088 16.6052L24.2929 16.6147L23.7822 16.9139C23.757 16.9286 23.7365 16.9503 23.7229 16.9764C23.7093 17.0025 23.7031 17.032 23.7052 17.0615Z" fill="#FAFAFA"/>
<path d="M23.7052 17.0614C23.7091 17.1393 23.731 17.2153 23.769 17.283C23.8071 17.3508 23.8602 17.4085 23.9241 17.4513C23.9454 17.4664 23.9698 17.4759 23.9955 17.4792C24.0211 17.4825 24.0471 17.4795 24.0714 17.4703L24.0873 17.4608C24.1067 17.4445 24.1219 17.4237 24.1319 17.4002C24.1418 17.3766 24.1461 17.351 24.1443 17.3254C24.1399 17.2474 24.1176 17.1715 24.0794 17.1038C24.0412 17.0361 23.988 16.9785 23.9241 16.9354C23.9029 16.9204 23.8784 16.9108 23.8528 16.9075C23.8271 16.9042 23.8011 16.9073 23.7769 16.9165L23.761 16.926C23.7419 16.9425 23.7269 16.9633 23.7173 16.9869C23.7076 17.0104 23.7035 17.0359 23.7052 17.0614Z" fill="#E0E0E0"/>
<path d="M28.0128 16.6363C28.818 16.0093 29.5901 16.0134 29.4508 14.4806C29.3327 13.8036 29.1682 13.7548 28.5222 13.4975C28.2383 13.3852 27.8589 13.2998 27.6321 13.5652C27.6072 13.5986 27.5797 13.6298 27.5498 13.6587C27.4829 13.7022 27.4062 13.7274 27.327 13.7318C27.1757 13.7393 27.0319 13.8012 26.921 13.9065C26.8454 13.9945 26.8162 14.115 26.7419 14.203C26.6706 14.272 26.5938 14.3349 26.5125 14.3912C26.4541 14.4429 26.4071 14.5064 26.3744 14.5778C26.3418 14.6492 26.3241 14.7268 26.3228 14.8056C26.3281 14.8956 26.3527 14.9834 26.3949 15.0627C26.4371 15.142 26.4958 15.2109 26.5668 15.2646L26.9728 15.0263C27.1386 14.9098 27.4808 15.3255 27.3336 15.5449C27.0988 15.8942 28.0128 16.6363 28.0128 16.6363Z" fill="#FFEDE5"/>
<path d="M18.6342 19.7181C18.8916 18.6565 18.9658 16.0039 18.9658 16.0039L11.4336 16.2341L11.8435 17.9091C11.9111 18.2867 11.9471 18.6694 11.951 19.0533C11.951 19.0533 12.6819 20.4358 14.8495 20.6781C16.1814 20.8077 17.5167 20.469 18.6342 19.7181Z" fill="#FFEDE5"/>
<path d="M18.9697 16.004C18.979 16.088 18.9259 16.8909 18.9259 16.8909C17.9628 17.7183 14.8732 18.1367 11.6298 17.0358L10.9426 14.3277C10.9426 14.3277 13.2747 13.2824 11.6988 9.77533L13.3928 9.63993L16.4001 9.56274H17.3871C18.1986 10.3675 18.8845 11.2945 19.4207 12.3115C19.8147 13.0616 20.3161 14.1611 18.9697 16.004Z" fill="#455A64"/>
<path d="M14.7075 16.0284C13.3504 15.675 13.0108 14.8097 12.914 14.1733C12.914 14.1733 12.658 16.0284 14.5974 16.4604C16.643 16.9153 17.484 15.262 17.484 15.262C17.484 15.262 16.3445 16.4549 14.7075 16.0284Z" fill="#37474F"/>
<path d="M3.1557 36.6709C2.75773 36.9674 1.84107 37.0392 1.03319 36.6519C0.225314 36.2646 -0.111634 35.1624 0.0395949 34.3107C0.222661 33.2722 0.725429 32.7048 0.85278 32.0792C0.98013 31.4537 0.85278 30.5898 1.04646 30.0319C1.12629 29.8175 1.25061 29.6232 1.4109 29.4624C1.57118 29.3016 1.76363 29.1781 1.97505 29.1003C2.10985 29.0471 2.25479 29.0262 2.39874 29.0391C2.54269 29.052 2.68184 29.0984 2.80548 29.1748L3.04427 29.3183L3.1557 36.6709Z" fill="#263238"/>
<path d="M4.10403 32.7102L3.47524 34.6357C3.47524 34.6357 3.87321 36.0087 3.64902 36.3743C3.3187 36.9159 2.73634 37.0107 1.75601 36.7047C0.635061 36.3567 0.371075 35.3208 0.429444 34.5165C0.509038 33.3696 1.54774 32.5071 1.42835 31.4022C1.36998 30.8606 1.44294 30.2553 1.73346 29.7895C2.05847 29.2695 2.59175 29.172 3.14492 29.3413C3.61983 29.4875 4.03638 29.7922 4.43832 30.0779C4.55372 30.1529 4.65822 30.244 4.74874 30.3487C4.82075 30.4467 4.87469 30.5573 4.90793 30.675C4.98066 30.9117 5.00238 31.1616 4.9716 31.4076C4.94242 31.6378 4.79782 31.7718 4.66384 31.9492L4.10403 32.7102Z" fill="url(#paint0_linear_414_5791)"/>
<path d="M6.81433 31.7991C6.77586 31.7842 4.85499 30.5303 4.64805 30.4356C4.4411 30.3408 3.9317 30.2067 3.43955 31.3699C3.08801 32.1972 3.59343 32.5032 3.59343 32.5032L5.84859 33.8708L6.81433 31.7991Z" fill="#FFEDE5"/>
<path d="M3.47535 34.6358C3.06891 34.4285 2.61896 34.3257 2.1647 34.3366C2.13097 34.3398 2.09699 34.3345 2.06572 34.3212C2.03446 34.3079 2.00688 34.2869 1.9854 34.2602C1.96392 34.2334 1.9492 34.2017 1.94253 34.1678C1.93586 34.1339 1.93744 34.0989 1.94715 34.0658C1.95991 34.0263 1.98388 33.9916 2.01599 33.966C2.04811 33.9405 2.08694 33.9252 2.12756 33.9222C2.43134 33.8978 3.16891 33.8884 3.65842 34.3C3.78842 34.5681 3.47535 34.6358 3.47535 34.6358Z" fill="url(#paint1_linear_414_5791)"/>
<path d="M3.70638 33.7555C3.31114 33.527 2.86703 33.401 2.41298 33.3885C2.37879 33.3903 2.34471 33.3833 2.3138 33.3683C2.28289 33.3533 2.25611 33.3307 2.23586 33.3025C2.21562 33.2743 2.20254 33.2414 2.1978 33.2068C2.19305 33.1722 2.1968 33.137 2.20869 33.1042C2.22332 33.0653 2.24888 33.0317 2.28216 33.0076C2.31544 32.9835 2.35495 32.97 2.39573 32.9688C2.70084 32.9607 3.43841 32.9918 3.90669 33.4278C4.0221 33.7054 3.70638 33.7555 3.70638 33.7555Z" fill="url(#paint2_linear_414_5791)"/>
<path opacity="0.3" d="M3.47535 34.6358C3.06891 34.4285 2.61896 34.3257 2.1647 34.3366C2.13097 34.3398 2.09699 34.3345 2.06572 34.3212C2.03446 34.3079 2.00688 34.2869 1.9854 34.2602C1.96392 34.2334 1.9492 34.2017 1.94253 34.1678C1.93586 34.1339 1.93744 34.0989 1.94715 34.0658C1.95991 34.0263 1.98388 33.9916 2.01599 33.966C2.04811 33.9405 2.08694 33.9252 2.12756 33.9222C2.43134 33.8978 3.16891 33.8884 3.65842 34.3C3.78842 34.5681 3.47535 34.6358 3.47535 34.6358Z" fill="black"/>
<path opacity="0.3" d="M3.70638 33.7555C3.31114 33.527 2.86703 33.401 2.41298 33.3885C2.37879 33.3903 2.34471 33.3833 2.3138 33.3683C2.28289 33.3533 2.25611 33.3307 2.23586 33.3025C2.21562 33.2743 2.20254 33.2414 2.1978 33.2068C2.19305 33.1722 2.1968 33.137 2.20869 33.1042C2.22332 33.0653 2.24888 33.0317 2.28216 33.0076C2.31544 32.9835 2.35495 32.97 2.39573 32.9688C2.70084 32.9607 3.43841 32.9918 3.90669 33.4278C4.0221 33.7054 3.70638 33.7555 3.70638 33.7555Z" fill="black"/>
<path d="M23.2823 36.8797L25.7776 35.8696C25.7351 35.2128 25.576 34.3381 25.7418 32.6198L22.9109 32.0701V34.9623L23.2823 36.8797Z" fill="#FFEDE5"/>
<path d="M30.4021 39.1163C30.4684 39.3213 30.4561 39.5444 30.3676 39.7405C30.2827 39.9233 29.3475 40.4609 28.0859 40.3742C27.1504 40.3073 26.2495 39.9861 25.4766 39.444C24.9963 39.119 24.4949 39.0581 23.8714 39.0215C23.2479 38.9849 22.4255 38.6667 22.2888 38.3688C22.1522 38.0709 22.3101 37.5564 22.3101 37.5564L30.4021 39.1163Z" fill="#263238"/>
<path d="M25.3118 35.0973L25.4113 35.0756C25.4654 35.0608 25.5219 35.058 25.5771 35.0675C25.6384 35.0868 25.6928 35.124 25.7337 35.1745C25.8571 35.3352 25.9647 35.508 26.0547 35.6904C26.32 36.1304 26.8745 36.496 27.4807 36.8278C27.8933 37.0539 28.2966 37.234 28.7224 37.4249C29.1482 37.6158 29.7319 37.7458 30.0715 37.9801C30.5663 38.32 30.6313 39.1757 30.0715 39.5129C29.586 39.8054 28.3059 40.1209 26.9634 39.7322C26.2311 39.521 25.4193 38.7235 24.4601 38.649C23.8499 38.6003 22.6945 38.4256 22.3018 37.953C22.1572 37.7431 22.3509 37.0769 22.5101 36.5028C22.6839 35.8759 22.7476 34.771 22.9518 34.8265C22.9518 34.8265 22.8961 34.9822 22.9757 35.0661C23.0553 35.1501 23.3352 35.318 23.4175 35.3884C23.555 35.5316 23.666 35.6991 23.7451 35.8826C23.778 35.9655 23.8393 36.0334 23.9176 36.0736C24.0211 36.1128 24.098 36.0465 24.1829 36.0045C24.2977 35.9521 24.427 35.943 24.5477 35.9788C24.5361 35.8544 24.5143 35.7312 24.4827 35.6105C24.4691 35.5723 24.4659 35.5312 24.4734 35.4913C24.4901 35.4542 24.5174 35.423 24.5517 35.402C24.7814 35.2473 25.0404 35.1435 25.3118 35.0973Z" fill="url(#paint3_linear_414_5791)"/>
<path d="M26.9106 36.4894C26.9106 36.4894 26.823 36.2498 26.4609 36.1821C26.1823 36.1293 25.6915 36.3378 25.3864 36.5883C25.3577 36.6125 25.3351 36.6434 25.3208 36.6785C25.3064 36.7135 25.3006 36.7516 25.3039 36.7895C25.3071 36.8273 25.3194 36.8638 25.3395 36.8957C25.3597 36.9277 25.3871 36.9541 25.4195 36.9728C25.4612 36.9971 25.5093 37.0074 25.5569 37.002C25.6046 36.9966 25.6494 36.976 25.6848 36.9431C26.0207 36.6359 26.4599 36.4734 26.9106 36.4894Z" fill="url(#paint4_linear_414_5791)"/>
<path d="M27.7712 36.981C27.7111 36.8944 27.6316 36.8238 27.5393 36.7751C27.447 36.7263 27.3445 36.7008 27.2406 36.7007C27.2406 36.7007 26.515 36.7223 26.0653 37.1489C26.0379 37.1724 26.0164 37.2023 26.0028 37.2361C25.9891 37.2698 25.9836 37.3064 25.9867 37.3428C25.9898 37.3792 26.0015 37.4143 26.0207 37.4451C26.0399 37.476 26.0661 37.5016 26.0971 37.5199C26.1365 37.5422 26.1818 37.5514 26.2265 37.546C26.2713 37.5407 26.3132 37.5211 26.3465 37.4901C26.5317 37.3021 26.7558 37.1587 27.0023 37.0706C27.2489 36.9825 27.5116 36.9519 27.7712 36.981Z" fill="url(#paint5_linear_414_5791)"/>
<path d="M28.7225 37.4254C28.6533 37.345 28.568 37.2809 28.4723 37.2372C28.3766 37.1935 28.2728 37.1713 28.168 37.1721C28.168 37.1721 27.4915 37.1979 27.0431 37.6244C27.0154 37.6476 26.9936 37.6774 26.9796 37.7112C26.9657 37.7449 26.9599 37.7816 26.9629 37.8181C26.9659 37.8546 26.9776 37.8898 26.9969 37.9207C27.0161 37.9516 27.0425 37.9772 27.0736 37.9954C27.1133 38.0177 27.1587 38.0268 27.2037 38.0214C27.2486 38.0161 27.2908 37.9966 27.3243 37.9656C27.5001 37.7707 27.7181 37.6204 27.9608 37.5266C28.2035 37.4328 28.4644 37.3981 28.7225 37.4254Z" fill="url(#paint6_linear_414_5791)"/>
<path opacity="0.3" d="M26.9106 36.4894C26.9106 36.4894 26.823 36.2498 26.4609 36.1821C26.1823 36.1293 25.6915 36.3378 25.3864 36.5883C25.3577 36.6125 25.3351 36.6434 25.3208 36.6785C25.3064 36.7135 25.3006 36.7516 25.3039 36.7895C25.3071 36.8273 25.3194 36.8638 25.3395 36.8957C25.3597 36.9277 25.3871 36.9541 25.4195 36.9728C25.4612 36.9971 25.5093 37.0074 25.5569 37.002C25.6046 36.9966 25.6494 36.976 25.6848 36.9431C26.0207 36.6359 26.4599 36.4734 26.9106 36.4894Z" fill="black"/>
<path opacity="0.3" d="M27.7712 36.981C27.7111 36.8944 27.6316 36.8238 27.5393 36.7751C27.447 36.7263 27.3445 36.7008 27.2406 36.7007C27.2406 36.7007 26.515 36.7223 26.0653 37.1489C26.0379 37.1724 26.0164 37.2023 26.0028 37.2361C25.9891 37.2698 25.9836 37.3064 25.9867 37.3428C25.9898 37.3792 26.0015 37.4143 26.0207 37.4451C26.0399 37.476 26.0661 37.5016 26.0971 37.5199C26.1365 37.5422 26.1818 37.5514 26.2265 37.546C26.2713 37.5407 26.3132 37.5211 26.3465 37.4901C26.5317 37.3021 26.7558 37.1587 27.0023 37.0706C27.2489 36.9825 27.5116 36.9519 27.7712 36.981Z" fill="black"/>
<path opacity="0.3" d="M28.7225 37.4254C28.6533 37.345 28.568 37.2809 28.4723 37.2372C28.3766 37.1935 28.2728 37.1713 28.168 37.1721C28.168 37.1721 27.4915 37.1979 27.0431 37.6244C27.0154 37.6476 26.9936 37.6774 26.9796 37.7112C26.9657 37.7449 26.9599 37.7816 26.9629 37.8181C26.9659 37.8546 26.9776 37.8898 26.9969 37.9207C27.0161 37.9516 27.0425 37.9772 27.0736 37.9954C27.1133 38.0177 27.1587 38.0268 27.2037 38.0214C27.2486 38.0161 27.2908 37.9966 27.3243 37.9656C27.5001 37.7707 27.7181 37.6204 27.9608 37.5266C28.2035 37.4328 28.4644 37.3981 28.7225 37.4254Z" fill="black"/>
<path d="M24.9883 22.3544C23.0913 21.9198 18.5611 20.953 18.5611 20.953L18.6341 19.7181C16.9958 20.5847 13.5427 20.3396 11.9508 19.0532L11.7001 20.3626C11.0966 21.1002 10.5739 21.9029 10.1414 22.7566C9.77793 23.4918 9.17036 24.6387 9.77528 27.3103C10.1308 28.8797 10.6044 33.0109 10.6044 33.0109L5.9614 31.2642C5.9614 31.2642 5.56343 31.3332 5.22648 32.2215C5.0275 32.7469 4.96117 33.2519 5.16281 33.5133C6.86081 34.8822 9.61211 37.1178 12.3926 38.3716C14.2498 39.0974 15.2367 37.5037 15.327 36.9133C15.6758 34.652 16.0778 27.3861 16.0778 27.3861L22.2861 27.1844C22.0805 28.3841 22.9162 33.0718 22.9162 33.0718C22.9162 33.0718 24.4444 33.7489 25.71 33.0556C25.71 33.0556 26.5563 27.661 26.6386 25.8614C26.7221 23.8547 26.823 22.7755 24.9883 22.3544Z" fill="url(#paint7_linear_414_5791)"/>
<path opacity="0.15" d="M22.286 27.1845C22.286 26.8609 22.497 25.7302 23.2146 25.1277C23.2146 25.1277 22.2303 25.3078 21.7793 27.2008L22.286 27.1845Z" fill="black"/>
<path opacity="0.15" d="M10.6042 33.011C10.6042 33.011 10.7369 34.7943 11.0712 35.6636C11.0712 35.6636 10.2341 34.12 10.1426 32.835L10.6042 33.011Z" fill="black"/>
<path opacity="0.15" d="M18.5598 20.9531L18.6327 19.7195C16.9944 20.5848 13.5427 20.3397 11.9521 19.0547L11.7014 20.3627C11.7147 20.3749 12.7361 21.4527 15.3919 21.5922C18.0477 21.7317 18.5598 20.9531 18.5598 20.9531Z" fill="black"/>
<path opacity="0.15" d="M16.0829 27.3861C16.061 26.7159 15.9057 26.0572 15.6265 25.4501C15.3474 24.8431 14.9503 24.3003 14.4592 23.8547C14.4592 23.8547 15.8866 24.5318 16.3642 26.6753C16.3642 26.6753 17.4254 26.1702 17.9799 24.6563C17.9799 24.6563 17.8101 26.1702 16.9558 27.0314L19.5307 27.2737L16.0829 27.3861Z" fill="black"/>
<path d="M15.2553 0.000249556C14.7103 -0.000640292 14.1704 0.108143 13.6666 0.320378C13.1628 0.532613 12.705 0.844136 12.3192 1.23713C11.9334 1.63013 11.6274 2.09689 11.4185 2.61072C11.2096 3.12456 11.102 3.67538 11.1018 4.2317C11.1018 4.78813 11.2093 5.33909 11.4181 5.85308C11.6269 6.36707 11.933 6.83399 12.3187 7.22713C12.7045 7.62027 13.1624 7.93192 13.6663 8.14424C14.1702 8.35656 14.7102 8.46539 15.2553 8.46449C16.3538 8.4627 17.4067 8.01591 18.1828 7.22226C18.9588 6.42862 19.3945 5.35301 19.3942 4.2317C19.3942 3.11062 18.9583 2.03536 18.1823 1.242C17.4063 0.448647 16.3536 0.00204328 15.2553 0.000249556Z" fill="#263238"/>
<path d="M10.9241 2.57291C11.074 2.56591 11.2243 2.57453 11.3725 2.59864C11.4227 2.60201 11.4699 2.62419 11.5051 2.66093C11.5256 2.69131 11.5371 2.72701 11.5383 2.76384C11.5725 2.99892 11.5512 3.23896 11.4759 3.46389C11.4176 3.62096 11.2358 3.70085 11.1204 3.81459C10.672 4.25872 10.6362 4.99398 10.8127 5.60466C10.9891 6.21534 11.3433 6.75967 11.5728 7.35005C11.8023 7.94042 11.9243 8.6513 11.5993 9.24573C11.4733 9.47322 11.2438 9.65195 11.2717 9.92276C11.3035 10.2545 11.5874 10.5714 11.7094 10.8706C11.8434 11.2251 11.889 11.6081 11.8421 11.985C11.8085 12.4537 11.638 12.9013 11.3526 13.27C11.1344 13.5295 10.8528 13.7254 10.5363 13.8377C10.2199 13.9499 9.87992 13.9746 9.5511 13.9091C9.41246 13.8844 9.28127 13.8274 9.16772 13.7426C8.97272 13.5828 8.89445 13.3215 8.78833 13.0899C8.4474 12.3411 7.72707 11.7968 7.50819 11.002C7.27073 10.1557 7.66605 9.27552 8.15157 8.55652C8.37842 8.22071 8.63179 7.89167 8.74322 7.49899C8.89312 6.96955 8.76179 6.40626 8.7273 5.85516C8.6944 5.31685 8.75503 4.77683 8.90639 4.26008C9.01517 3.88635 9.18364 3.45576 9.46885 3.18766C9.86912 2.81621 10.3837 2.59882 10.9241 2.57291Z" fill="#263238"/>
<path d="M17.8475 1.93652C18.3011 2.21411 18.8596 3.38537 18.7946 5.83622C18.7389 7.91336 18.077 8.42384 17.7453 8.57143C17.4137 8.71902 16.7743 8.62424 16.1534 8.51591V9.76301C16.1534 9.76301 17.0077 10.784 16.9494 11.3567C16.891 11.9295 15.7077 12.0581 14.9065 11.4921C14.1052 10.9261 13.4327 9.83883 13.4327 9.83883L13.4592 6.97093C13.4592 6.97093 13.0891 7.33653 12.4696 6.78136C11.9615 6.32233 11.7917 5.55187 12.1923 5.14565C12.5929 4.73943 13.3292 4.84911 13.6104 5.43948C13.6104 5.43948 14.6 5.48011 15.9226 4.7462C16.4371 4.46514 16.8795 4.06429 17.214 3.57613C17.5484 3.08798 17.7654 2.52627 17.8475 1.93652Z" fill="#FFEDE5"/>
<path d="M16.5235 5.30539C16.5238 5.35672 16.5092 5.40699 16.4816 5.44991C16.454 5.49283 16.4146 5.52651 16.3684 5.54675C16.3222 5.56698 16.2712 5.57287 16.2217 5.56369C16.1722 5.5545 16.1265 5.53065 16.0902 5.4951C16.0539 5.45955 16.0287 5.41388 16.0177 5.36379C16.0067 5.3137 16.0104 5.26141 16.0283 5.21345C16.0462 5.16548 16.0776 5.12397 16.1185 5.09409C16.1593 5.0642 16.208 5.04727 16.2582 5.04541C16.3268 5.04535 16.3927 5.07239 16.4422 5.12086C16.4916 5.16933 16.5208 5.23546 16.5235 5.30539Z" fill="#263238"/>
<g style="mix-blend-mode:multiply" opacity="0.5">
<g style="mix-blend-mode:multiply" opacity="0.5">
<path d="M16.582 7.06714L17.175 7.26212C17.1642 7.30276 17.1455 7.34074 17.12 7.37382C17.0945 7.40689 17.0627 7.43436 17.0265 7.45459C16.9903 7.47482 16.9505 7.48739 16.9095 7.49155C16.8684 7.4957 16.827 7.49136 16.7876 7.47877C16.7077 7.45091 16.6415 7.39235 16.6031 7.3155C16.5647 7.23866 16.5572 7.14957 16.582 7.06714Z" fill="#F28F8F"/>
</g>
</g>
<path d="M18.6261 4.51202L18.1101 4.14372C18.1317 4.10805 18.1603 4.07727 18.194 4.05329C18.2277 4.0293 18.2658 4.0126 18.3061 4.00423C18.3464 3.99586 18.3879 3.99599 18.4281 4.00461C18.4683 4.01323 18.5064 4.03015 18.5399 4.05435C18.6085 4.10526 18.6555 4.18085 18.6715 4.26582C18.6875 4.35079 18.6713 4.43879 18.6261 4.51202Z" fill="#263238"/>
<path d="M18.504 5.12411C18.5045 5.17549 18.4901 5.22589 18.4627 5.26899C18.4353 5.31209 18.396 5.34597 18.3498 5.36641C18.3036 5.38686 18.2525 5.39294 18.203 5.38391C18.1534 5.37488 18.1076 5.35113 18.0711 5.31564C18.0347 5.28014 18.0094 5.23448 17.9983 5.18436C17.9871 5.13424 17.9908 5.08188 18.0086 5.03384C18.0265 4.9858 18.0579 4.9442 18.0988 4.91426C18.1397 4.88431 18.1884 4.86734 18.2387 4.86548C18.307 4.86541 18.3728 4.89226 18.4222 4.94044C18.4716 4.98862 18.5009 5.05441 18.504 5.12411Z" fill="#263238"/>
<g style="mix-blend-mode:multiply" opacity="0.5">
<g style="mix-blend-mode:multiply" opacity="0.5">
<path d="M17.2969 4.96948L17.3314 6.5429L18.1432 6.28969L17.2969 4.96948Z" fill="#F28F8F"/>
</g>
</g>
<g style="mix-blend-mode:multiply" opacity="0.5">
<g style="mix-blend-mode:multiply" opacity="0.5">
<path d="M16.1547 8.51619C15.4993 8.42683 14.1542 8.02602 13.9473 7.48169C14.0306 7.75676 14.1945 7.99917 14.4169 8.17632C14.8175 8.53109 16.152 8.93731 16.152 8.93731L16.1547 8.51619Z" fill="#F28F8F"/>
</g>
</g>
<path d="M11.6987 9.77661C10.4146 9.87004 9.88533 10.0366 9.17031 11.6561C8.52692 13.1117 6.98811 16.8787 6.6034 17.7182C6.2187 18.5577 6.14574 18.8949 6.47075 19.7737C6.73606 20.49 8.90367 24.605 9.14112 25.2048C9.37858 25.8047 9.48338 26.4113 9.88798 27.11C10.2926 27.8087 10.932 28.4911 11.4374 28.6523C12.1869 28.8919 13.1619 28.5588 13.1898 28.0971C13.2177 27.6354 12.0901 26.8649 11.7836 25.8399C11.9876 25.9766 12.2023 26.0957 12.4257 26.196C12.7295 26.3233 13.0691 26.2948 13.1699 26.1188C13.2707 25.9428 12.9669 25.8358 12.6963 25.5609C12.5345 25.3971 12.2479 25.0288 11.8818 24.7038C11.6337 24.4844 11.2278 24.4195 11.0447 24.1784C10.9466 24.0498 10.5009 22.9354 10.1652 21.9429C9.75134 20.712 9.20612 19.0736 9.20612 19.0736L11.4374 14.3344C11.4374 14.3344 13.1871 12.5524 11.6987 9.77661Z" fill="#FFEDE5"/>
<path d="M9.13729 25.2047C9.13729 25.2047 9.65067 24.1445 11.0409 24.1783L10.6735 23.3442C10.6735 23.3442 9.31638 23.4417 8.74463 24.3801L9.13729 25.2047Z" fill="#37474F"/>
<path d="M8.98731 24.3043L9.28578 24.7362C9.30739 24.7676 9.33497 24.7942 9.36689 24.8145C9.3988 24.8348 9.43439 24.8483 9.47153 24.8543C9.50867 24.8602 9.54661 24.8585 9.58307 24.8491C9.61953 24.8398 9.65377 24.823 9.68375 24.7998L10.2144 24.3936C10.2761 24.3454 10.3174 24.275 10.33 24.1968C10.3425 24.1185 10.3254 24.0383 10.282 23.9725L10.0048 23.5555C9.98392 23.5233 9.95686 23.4957 9.92525 23.4746C9.89364 23.4534 9.85813 23.439 9.8209 23.4323C9.78367 23.4256 9.74549 23.4267 9.70868 23.4355C9.67187 23.4444 9.63722 23.4607 9.60681 23.4837L9.04435 23.8899C8.9831 23.9372 8.94272 24.0074 8.93203 24.0851C8.92134 24.1627 8.94121 24.2415 8.98731 24.3043Z" fill="#263238"/>
<path d="M8.88782 24.2937L9.18895 24.7256C9.21067 24.7569 9.23831 24.7834 9.27022 24.8035C9.30214 24.8237 9.33769 24.8372 9.37478 24.8431C9.41187 24.849 9.44975 24.8473 9.48619 24.8381C9.52262 24.8288 9.55687 24.8122 9.58692 24.7892L10.1175 24.383C10.1792 24.3348 10.2206 24.2645 10.2334 24.1864C10.2462 24.1082 10.2294 24.028 10.1865 23.9619L9.90927 23.5449C9.88829 23.5128 9.86117 23.4855 9.82955 23.4644C9.79793 23.4433 9.76247 23.429 9.72529 23.4223C9.68811 23.4156 9.64998 23.4167 9.61321 23.4254C9.57644 23.4341 9.54177 23.4503 9.5113 23.4731L8.94884 23.8861C8.88858 23.9325 8.84846 24.0011 8.83706 24.0772C8.82566 24.1534 8.84387 24.231 8.88782 24.2937Z" fill="#455A64"/>
<path d="M10.1321 24.1512C10.1254 24.2047 10.0982 24.2534 10.0564 24.2866L9.52581 24.6928C9.50737 24.7078 9.48598 24.7186 9.46309 24.7245C9.4402 24.7303 9.41635 24.731 9.39315 24.7266C9.37041 24.7231 9.3486 24.7149 9.329 24.7025C9.30941 24.6902 9.29243 24.674 9.27907 24.6549L8.97661 24.2216C8.95109 24.1856 8.93973 24.1411 8.94478 24.097C8.94658 24.0702 8.95418 24.0442 8.96702 24.0208C8.97987 23.9974 8.99764 23.9772 9.01906 23.9616L9.58153 23.5554C9.60034 23.5411 9.62184 23.531 9.64467 23.5257C9.66749 23.5203 9.69116 23.5198 9.71418 23.5242C9.7369 23.5283 9.75859 23.537 9.77796 23.5498C9.79733 23.5626 9.81398 23.5792 9.82694 23.5987L10.1042 24.0158C10.1302 24.0556 10.1415 24.1036 10.136 24.1512H10.1321Z" fill="url(#paint8_linear_414_5791)"/>
</g>
<defs>
<linearGradient id="paint0_linear_414_5791" x1="4.98517" y1="36.8774" x2="-1.12004" y2="36.5942" gradientUnits="userSpaceOnUse">
<stop stop-color="#92A3FD"/>
<stop offset="1" stop-color="#9DCEFF"/>
</linearGradient>
<linearGradient id="paint1_linear_414_5791" x1="3.69002" y1="34.6358" x2="1.42128" y2="34.2106" gradientUnits="userSpaceOnUse">
<stop stop-color="#92A3FD"/>
<stop offset="1" stop-color="#9DCEFF"/>
</linearGradient>
<linearGradient id="paint2_linear_414_5791" x1="3.93207" y1="33.7555" x2="1.66993" y2="33.3697" gradientUnits="userSpaceOnUse">
<stop stop-color="#92A3FD"/>
<stop offset="1" stop-color="#9DCEFF"/>
</linearGradient>
<linearGradient id="paint3_linear_414_5791" x1="30.4674" y1="39.9131" x2="19.6204" y2="38.5578" gradientUnits="userSpaceOnUse">
<stop stop-color="#92A3FD"/>
<stop offset="1" stop-color="#9DCEFF"/>
</linearGradient>
<linearGradient id="paint4_linear_414_5791" x1="26.9106" y1="37.0034" x2="24.8026" y2="36.6873" gradientUnits="userSpaceOnUse">
<stop stop-color="#92A3FD"/>
<stop offset="1" stop-color="#9DCEFF"/>
</linearGradient>
<linearGradient id="paint5_linear_414_5791" x1="27.7712" y1="37.5475" x2="25.4395" y2="37.1671" gradientUnits="userSpaceOnUse">
<stop stop-color="#92A3FD"/>
<stop offset="1" stop-color="#9DCEFF"/>
</linearGradient>
<linearGradient id="paint6_linear_414_5791" x1="28.7225" y1="38.0229" x2="26.4213" y2="37.6545" gradientUnits="userSpaceOnUse">
<stop stop-color="#92A3FD"/>
<stop offset="1" stop-color="#9DCEFF"/>
</linearGradient>
<linearGradient id="paint7_linear_414_5791" x1="26.6755" y1="38.5575" x2="-2.11994" y2="36.0858" gradientUnits="userSpaceOnUse">
<stop stop-color="#92A3FD"/>
<stop offset="1" stop-color="#9DCEFF"/>
</linearGradient>
<linearGradient id="paint8_linear_414_5791" x1="10.1374" y1="24.7295" x2="8.5461" y2="24.6078" gradientUnits="userSpaceOnUse">
<stop stop-color="#92A3FD"/>
<stop offset="1" stop-color="#9DCEFF"/>
</linearGradient>
<clipPath id="clip0_414_5791">
<rect width="32.7556" height="40.3836" fill="white" transform="translate(0 0.000244141)"/>
</clipPath>
</defs>
</svg>
