<svg width="50" height="35" viewBox="0 0 50 35" fill="none" xmlns="http://www.w3.org/2000/svg">
<g clip-path="url(#clip0_414_5686)">
<path d="M19.0849 13.1347C19.0849 13.1347 20.111 4.85209 19.8793 1.82721C19.7605 0.275681 19.0047 -0.0753288 17.8493 0.0131612C16.694 0.101651 10.0872 3.58963 10.0872 3.58963L11.0287 5.84612L16.5232 4.12942C16.5232 4.12942 15.9634 7.35193 15.8342 7.96398C15.705 8.57604 15.4347 9.40047 15.2194 10.1394C15.1139 10.5036 14.9669 10.9756 14.9669 11.2042C14.9699 11.744 19.0849 13.1347 19.0849 13.1347Z" fill="#FFEDE5"/>
<path d="M16.523 4.12952C17.2893 3.98204 18.0541 3.53221 18.2947 3.17383C18.1711 3.57681 17.8984 3.91832 17.5314 4.12952C17.1821 4.3532 16.8121 4.54333 16.4265 4.69733L16.523 4.12952Z" fill="#F28F8F"/>
<path d="M29.4858 12.9873C29.3715 12.5655 28.626 12.1216 26.4044 11.7514C24.1828 11.3812 22.1617 11.7514 22.1498 12.0125C22.138 12.2735 22.6978 14.0182 25.2595 14.3368C27.8211 14.6554 29.7204 13.9135 29.4858 12.9873Z" fill="#263238"/>
<path d="M22.8034 16.5725C22.8034 16.5725 21.3555 7.24568 21.5634 5.34167C21.7787 3.37424 22.5301 2.46132 23.7909 2.33301C25.4378 3.2828 26.3154 5.55257 27.3683 7.78989C28.4212 10.0272 29.5617 14.8263 29.6226 17.1197C29.6835 19.4131 27.8569 21.0472 25.7883 21.3451C23.7196 21.643 22.8034 16.5725 22.8034 16.5725Z" fill="#FFEDE5"/>
<path d="M25.0783 9.27072C24.4102 8.7373 23.9587 7.98199 23.8071 7.14401L25.8787 6.42725L27.2761 7.58204L27.3177 7.672C27.3355 7.71035 27.3533 7.7487 27.3726 7.78704C27.4127 7.87258 27.4528 7.96255 27.4929 8.05399C27.5033 8.08053 27.5152 8.10708 27.5271 8.1351C27.5583 8.20589 27.588 8.28258 27.6192 8.35633L27.6503 8.43302C27.6919 8.53478 27.732 8.63949 27.7736 8.74716C27.8137 8.85482 27.8538 8.96543 27.8939 9.07752C27.9028 9.10259 27.9117 9.12619 27.9191 9.14979L28.0261 9.4595C28.0261 9.47425 28.0365 9.49047 28.0424 9.50522C28.1256 9.75594 28.2087 10.0155 28.2889 10.281L28.3023 10.3238C28.3424 10.455 28.381 10.5877 28.4196 10.722C28.4196 10.722 26.495 10.4476 25.0783 9.27072Z" fill="#F28F8F"/>
<path d="M23.3542 2.41285C24.1412 2.10461 25.0991 2.8258 25.6054 3.15026C26.6346 3.80509 32.9266 8.67499 34.3938 9.81651C34.7116 10.0082 35.0353 10.1926 35.365 10.3666L33.6364 13.0508C33.4945 12.6651 33.2723 12.3133 32.9845 12.0184C31.4163 10.9064 28.3809 10.3003 26.4267 9.54514C24.906 8.95521 24.5882 8.62484 24.0759 7.76207C23.6838 7.07922 22.2686 2.92314 23.3542 2.41285Z" fill="#FFEDE5"/>
<path d="M22.7721 16.6243L22.1499 12.0125C22.1499 12.0125 22.7083 13.2838 25.5833 13.6185C28.4582 13.9533 29.5586 13.4711 29.4859 12.9873C29.4859 12.9873 30.2373 15.875 29.9462 17.751C29.6552 19.627 26.7698 21.6254 26.7698 21.6254L22.7721 16.6243Z" fill="#37474F"/>
<path opacity="0.15" d="M24.0448 17.2554C23.7804 17.2554 23.5324 17.2716 23.3022 17.2864L26.498 21.2788H27.2405C28.0691 20.6254 29.7309 19.1565 29.9477 17.7554C30.1615 16.3794 29.814 14.4621 29.6136 13.5359C29.7279 14.6007 27.3296 17.1861 24.0448 17.2554Z" fill="black"/>
<path d="M38.4376 6.46429C37.3981 6.27256 36.9154 7.01735 36.5323 7.63236C36.1492 8.24736 35.5076 9.37561 35.221 9.56586C34.9344 9.75612 34.7755 9.56586 34.3672 9.87115C33.9588 10.1764 33.6603 10.7561 33.7865 10.967L34.0835 11.4802C33.9123 11.4616 33.739 11.4832 33.5778 11.5434C33.4165 11.6037 33.2718 11.7007 33.1554 11.8268C32.7099 12.2692 32.9415 12.343 33.1925 12.5937C33.4435 12.8444 34.033 13.9771 34.6241 14.2853C34.6241 14.2853 36.216 13.8119 37.3698 12.0185C38.5237 10.2251 38.4376 6.46429 38.4376 6.46429Z" fill="url(#paint0_linear_414_5686)"/>
<path d="M34.9522 14.5226C34.8913 14.5118 34.8334 14.4886 34.782 14.4544C34.7306 14.4202 34.687 14.3757 34.6539 14.3238C34.6208 14.2719 34.5989 14.2137 34.5897 14.153C34.5805 14.0923 34.5841 14.0303 34.6003 13.971C34.7762 13.418 35.0404 12.8966 35.3829 12.4269C35.7824 11.8635 36.5308 10.8045 36.657 10.2249C36.7833 9.64532 37.055 8.02153 37.499 7.34163C37.9431 6.66173 38.399 6.26943 38.9841 6.48918C39.5692 6.70893 37.7218 11.0612 37.1798 11.7986C36.6377 12.536 34.9522 14.5226 34.9522 14.5226Z" fill="#37474F"/>
<path d="M35.2938 14.4282C36.7565 13.6539 37.2377 12.9018 37.6698 11.921C38.1019 10.9402 39.1118 10.0362 39.3731 9.15569C39.6345 8.27521 39.6612 6.01724 38.6559 6.5644C37.6505 7.11157 37.4411 9.13061 37.0001 10.2972C36.559 11.4638 33.8593 15.1907 35.2938 14.4282Z" fill="#263238"/>
<path d="M26.5026 16.8129C27.1708 16.7112 28.4554 16.9855 29.6211 18.6019C30.873 20.3378 31.1061 23.3671 30.3205 23.6163C30.3205 23.6163 28.4999 23.4039 27.2495 22.7535C25.9991 22.1031 23.8978 17.7096 26.5026 16.8129Z" fill="#263238"/>
<path d="M47.8571 31.2663C45.9177 30.5097 44.3302 29.2089 42.9566 27.7547C41.8517 26.2651 37.1175 19.8865 36.2963 18.9883C35.9993 18.6697 35.2954 17.8497 34.3197 17.6447C30.8656 16.9073 24.4696 17.0165 24.4696 17.0165L22.0104 16.605L17.1099 21.1858C17.7855 21.9011 18.6335 22.525 19.8735 23.1665C21.1135 23.8081 22.4544 24.2741 24.2632 24.1222C27.8836 23.8184 30.0547 22.8022 31.9927 22.3524C32.554 22.2226 33.1361 22.1032 33.5772 23.0176C34.0182 23.932 34.0539 24.3906 35.3592 25.3625C37.0328 26.6102 39.7964 28.0054 41.0023 29.4921C41.2009 29.8565 41.3193 30.2587 41.3498 30.6719C41.4641 32.2397 42.7887 31.9314 43.8565 32.6128C44.4386 32.9845 44.8707 33.4358 45.5717 33.5892C46.2099 33.7196 46.8693 33.7075 47.5022 33.5538C48.0724 33.4195 48.8892 33.011 49.1699 32.4594C49.5381 31.725 48.4155 31.4831 47.8571 31.2663Z" fill="#FFEDE5"/>
<path d="M47.8571 31.2663C45.9177 30.5097 44.3302 29.2089 42.9566 27.7547C41.8517 26.2651 37.1175 19.8865 36.2963 18.9883C35.9993 18.6697 35.2954 17.8497 34.3197 17.6447C30.8656 16.9073 24.4696 17.0165 24.4696 17.0165L22.0104 16.605L17.1099 21.1858C17.7855 21.9011 18.6335 22.525 19.8735 23.1665C21.1135 23.8081 22.4544 24.2741 24.2632 24.1222C27.8836 23.8184 30.0547 22.8022 31.9927 22.3524C32.554 22.2226 33.1361 22.1032 33.5772 23.0176C34.0182 23.932 34.0539 24.3906 35.3592 25.3625C37.0328 26.6102 39.7964 28.0054 41.0023 29.4921C41.2009 29.8565 41.3193 30.2587 41.3498 30.6719C41.4641 32.2397 42.7887 31.9314 43.8565 32.6128C44.4386 32.9845 44.8707 33.4358 45.5717 33.5892C46.2099 33.7196 46.8693 33.7075 47.5022 33.5538C48.0724 33.4195 48.8892 33.011 49.1699 32.4594C49.5381 31.725 48.4155 31.4831 47.8571 31.2663Z" fill="#FFEDE5"/>
<path d="M35.2477 24.6192C34.8801 24.2145 34.6009 23.7384 34.428 23.2211C34.2951 22.7887 34.1242 22.3687 33.9171 21.966C33.3142 20.9336 29.3136 22.2507 27.542 22.7905C27.4425 22.9379 27.0267 23.3804 26.8782 23.7491C29.024 23.314 30.5684 22.6813 31.9896 22.351C32.5509 22.2212 33.1331 22.1017 33.5741 23.0161C34.0152 23.9305 34.0508 24.3892 35.3561 25.3611C36.0363 25.8684 36.8961 26.3935 37.7589 26.9524C36.7951 26.2091 36.0689 25.4643 35.2477 24.6192Z" fill="#F28F8F"/>
<path d="M22.3904 16.605C22.3904 16.605 25.9054 16.7761 26.5024 16.8188C26.5024 16.8188 25.1792 17.1728 26.789 20.4042C28.3987 23.6355 30.3218 23.6178 30.3218 23.6178C27.7973 24.4201 26.486 25.3212 23.268 24.9452C19.4322 24.3951 17.1067 21.5427 17.1067 21.5427L22.3904 16.605Z" fill="#455A64"/>
<path opacity="0.15" d="M30.3129 23.618C30.2837 23.6199 30.2545 23.6199 30.2253 23.618C29.9387 23.5856 29.0863 23.3998 28.1314 22.3895C27.3735 22.5903 26.6044 22.7474 25.8282 22.86C22.9591 23.2774 20.8073 22.7744 17.6012 21.0769L17.1067 21.54C18.3791 22.9651 20.0113 24.0271 21.835 24.6165C21.9464 24.6504 22.0607 24.6843 22.1765 24.7153C22.2849 24.7433 22.3948 24.7714 22.5047 24.7964L22.5344 24.8038C22.6354 24.8274 22.7393 24.8481 22.8433 24.8687L22.8982 24.879C23.02 24.9026 23.1418 24.9233 23.2665 24.941C23.4685 24.9646 23.6615 24.9823 23.8487 24.997C24.0358 25.0118 24.2155 25.0191 24.3907 25.025H24.6476C24.7322 25.025 24.8154 25.025 24.8971 25.025C25.1421 25.025 25.3752 25.0059 25.5995 24.9837C25.748 24.969 25.8935 24.9513 26.0361 24.9306C26.3794 24.879 26.7195 24.8081 27.0548 24.7183C27.1855 24.6829 27.3147 24.646 27.4424 24.6062C27.7646 24.5088 28.0824 24.3997 28.4091 24.2817L28.8056 24.1342C29.2749 23.9632 29.7679 23.7832 30.3203 23.6077L30.3129 23.618Z" fill="black"/>
<path d="M10.6366 12.2057C9.20804 12.6983 7.85816 13.5596 9.00311 16.0801C10.6366 19.72 18.0409 23.7611 21.8426 24.6194C19.912 21.7184 21.5188 18.6434 22.7796 16.6243L22.4395 14.1584C22.4395 14.1584 21.299 13.6142 19.4101 12.1644C17.5212 10.7147 16.7371 10.3209 13.9259 11.1704C11.9939 11.7544 10.6366 12.2057 10.6366 12.2057Z" fill="url(#paint1_linear_414_5686)"/>
<path opacity="0.05" d="M16.4238 20.4323C12.536 18.22 11.3138 16.2496 9.7887 14.3574L8.79077 15.5668C8.8175 15.645 8.8472 15.7246 8.87987 15.8072C8.87931 15.8116 8.87931 15.816 8.87987 15.8205C8.91254 15.9045 8.94967 15.9915 8.98976 16.08C9.71445 17.6728 11.5336 19.3424 13.672 20.7951C13.969 21.0015 14.2898 21.2036 14.6046 21.3997C14.7635 21.4986 14.9224 21.5959 15.0828 21.6947C16.1703 22.3414 17.296 22.9225 18.4538 23.435C19.54 23.933 20.6712 24.3281 21.8322 24.6149C21.4093 23.9907 21.1267 23.2835 21.0035 22.5413C19.6522 22.1372 18.2028 21.4455 16.4238 20.4323Z" fill="black"/>
<path d="M9.5644 12.6996C9.5644 12.6996 4.76928 10.1541 4.01044 9.81044L8.20709 7.3637L7.31608 5.06738C7.31608 5.06738 1.07902 7.26931 -0.108991 7.90201C-0.731212 8.2368 -1 8.51259 -1 8.98749C-1 9.77947 -0.241157 10.806 0.810233 11.6953C3.04518 13.5875 6.07758 15.3499 9.03128 16.9604C9.70844 17.4589 10.4123 18.0857 10.4123 18.0857C11.189 18.4721 12.3191 14.906 9.5644 12.6996Z" fill="#FFEDE5"/>
<path d="M14.0535 3.85242C13.754 3.16185 13.1905 2.61772 12.4871 2.33976C11.7836 2.06179 10.9977 2.07274 10.3024 2.37021C9.60706 2.66768 9.05918 3.2273 8.77929 3.92595C8.49941 4.62461 8.51044 5.40507 8.80996 6.09564C8.82927 6.14284 8.85303 6.18561 8.8753 6.22985L8.15061 7.79612L7.07992 5.83607C7.08036 5.68168 7.023 5.53264 6.91899 5.4179C6.81498 5.30315 6.67174 5.2309 6.5171 5.21517C6.43867 5.20852 6.3597 5.21778 6.28499 5.24239C6.21028 5.26699 6.14138 5.30642 6.08249 5.35829C6.0236 5.41016 5.97594 5.47337 5.94242 5.5441C5.90889 5.61482 5.89019 5.69158 5.88745 5.7697L6.70569 5.84049C6.52614 5.95877 6.3885 6.13004 6.31217 6.33014C6.11763 6.83453 6.79479 7.86249 7.70214 8.76509C7.70214 8.76509 8.98668 10.5659 9.29853 10.8181C9.49947 10.9699 9.75136 11.0396 10.0024 11.0127L10.0796 7.47313C10.6012 7.75271 11.1975 7.86399 11.7857 7.79152C12.3739 7.71906 12.9248 7.46645 13.3618 7.06878C13.7988 6.67112 14.1002 6.14815 14.2242 5.57254C14.3481 4.99692 14.2885 4.39725 14.0535 3.85684V3.85242Z" fill="#263238"/>
<path d="M8.78166 8.4064C8.66285 8.5701 8.30051 8.36215 8.0139 8.24121C7.7273 8.12028 6.95954 8.11585 6.92984 8.92849C6.90014 9.74112 7.9055 10.4033 8.48317 10.3429C9.47813 10.2411 9.37418 9.62608 9.37418 9.62608L10.8354 12.8397C12.5269 13.76 15.6751 12.3118 13.7862 11.4018L13.3689 10.4476C13.7299 10.3512 14.0787 10.2141 14.4084 10.039C15.0024 9.66443 15.1969 8.98601 15.0915 8.20877C14.9237 6.96253 14.646 6.01274 13.4372 3.93175C12.1007 1.65756 9.27914 2.83448 8.17725 4.43172C7.07537 6.02897 8.78166 8.4064 8.78166 8.4064Z" fill="#FFEDE5"/>
<path d="M8.89905 8.67932C8.81885 8.71619 8.29167 8.34158 8.00804 8.24572C7.62342 8.11446 6.99823 5.69721 6.99823 5.69721C6.99823 5.69721 6.48738 5.24739 6.76805 4.43623C6.99823 3.77108 7.84765 3.32568 8.43572 3.03071C9.49602 2.4983 10.6825 1.89214 11.2023 0.777167C11.2439 0.688678 11.3033 0.588389 11.4013 0.586914C11.4317 0.589611 11.4613 0.598303 11.4884 0.612483C11.5154 0.626664 11.5393 0.646048 11.5587 0.669505C11.8035 0.942467 11.9416 1.29362 11.9478 1.65912C11.9478 1.69304 11.9582 1.73581 11.9923 1.74613C12.0265 1.75646 12.0517 1.72843 12.0725 1.70336C12.1804 1.57221 12.2625 1.42213 12.3146 1.26091C12.3859 1.04116 12.7601 1.60012 12.7868 1.67682C12.8744 1.91945 12.9121 2.17703 12.8978 2.43438C12.8836 2.69174 12.8175 2.94364 12.7037 3.17525C12.472 3.63687 11.9953 3.92299 11.5587 4.17518C10.586 4.73857 8.92281 5.27541 8.69114 5.33883C8.37632 5.42584 8.43721 5.73998 8.61541 6.59096C8.77876 7.34312 9.16783 8.55396 8.89905 8.67932Z" fill="#263238"/>
<path d="M13.369 10.4475C13.369 10.4475 11.6315 10.8118 11.0137 10.766C10.6513 10.7399 10.3054 10.6052 10.0217 10.3796C10.2234 10.6396 10.4759 10.8564 10.7642 11.0168C11.3345 11.3265 13.5323 10.8324 13.5323 10.8324L13.369 10.4475Z" fill="#F28F8F"/>
<path d="M10.6545 5.95681L10.1377 6.51725C10.0633 6.44535 10.0197 6.34765 10.0161 6.24457C10.0125 6.1415 10.0492 6.04104 10.1184 5.96419C10.1528 5.92816 10.1941 5.89934 10.2398 5.87941C10.2856 5.85949 10.3349 5.84887 10.3849 5.84818C10.4349 5.84749 10.4845 5.85675 10.5308 5.87541C10.5771 5.89407 10.6192 5.92175 10.6545 5.95681Z" fill="#263238"/>
<path d="M12.3191 8.81958L13.0839 8.78418C13.0885 8.83414 13.083 8.88453 13.0676 8.93232C13.0522 8.98012 13.0273 9.02434 12.9943 9.06234C12.9613 9.10034 12.9209 9.13134 12.8756 9.15349C12.8303 9.17564 12.7809 9.18847 12.7304 9.19123C12.6268 9.19413 12.526 9.15704 12.4493 9.08774C12.3726 9.01844 12.326 8.92233 12.3191 8.81958Z" fill="#F28F8F"/>
<path d="M13.7999 5.06744L13.0574 4.87866C13.0675 4.82955 13.0875 4.78298 13.1163 4.74179C13.145 4.7006 13.1819 4.66563 13.2247 4.63902C13.2674 4.6124 13.3152 4.59469 13.3651 4.58695C13.4149 4.57922 13.4659 4.58162 13.5148 4.59402C13.614 4.62206 13.6988 4.68665 13.7518 4.77461C13.8048 4.86258 13.822 4.96731 13.7999 5.06744Z" fill="#263238"/>
<path d="M12.2151 6.22217L12.7215 8.03179L13.6125 7.49495L12.2151 6.22217Z" fill="#F28F8F"/>
<path d="M10.8059 7.0335C10.8062 7.09877 10.826 7.1625 10.8627 7.21663C10.8994 7.27077 10.9515 7.31288 11.0123 7.33766C11.0731 7.36244 11.1399 7.36877 11.2044 7.35586C11.2688 7.34294 11.3279 7.31136 11.3743 7.2651C11.4207 7.21884 11.4522 7.15998 11.4649 7.09593C11.4776 7.03189 11.471 6.96554 11.4457 6.90526C11.4205 6.84498 11.3779 6.79347 11.3232 6.75724C11.2685 6.721 11.2043 6.70166 11.1386 6.70166C11.0947 6.70166 11.0514 6.71025 11.0109 6.72695C10.9705 6.74364 10.9337 6.76811 10.9028 6.79894C10.8719 6.82978 10.8474 6.86637 10.8308 6.90662C10.8142 6.94687 10.8057 6.98999 10.8059 7.0335Z" fill="#263238"/>
<path d="M13.2131 6.09689C13.2128 6.16031 13.2315 6.22239 13.2668 6.27524C13.3021 6.3281 13.3524 6.36935 13.4114 6.39375C13.4703 6.41816 13.5352 6.42462 13.5979 6.41232C13.6605 6.40002 13.7181 6.36951 13.7632 6.32466C13.8084 6.27981 13.8391 6.22265 13.8515 6.16044C13.8639 6.09822 13.8574 6.03375 13.8328 5.97521C13.8082 5.91667 13.7667 5.8667 13.7135 5.83165C13.6603 5.79659 13.5978 5.77803 13.5339 5.77832C13.449 5.77871 13.3676 5.8124 13.3075 5.87206C13.2474 5.93172 13.2135 6.01252 13.2131 6.09689Z" fill="#263238"/>
<path d="M41.1566 31.001C41.0304 31.0865 41.2264 31.6263 41.3407 31.759C41.5789 31.989 41.8732 32.1536 42.1946 32.2369C42.7793 32.4147 43.3256 32.6988 43.8059 33.0746C44.3982 33.5509 45.0871 33.8945 45.8255 34.0819C46.7016 34.2751 47.7144 34.0288 48.598 33.5082C49.5247 32.964 49.4385 32.4419 49.3123 32.0938L41.1566 31.001Z" fill="#37474F"/>
<path d="M43.1612 27.9717C43.4582 28.2843 45.0739 29.8713 46.3139 30.2754C47.3014 30.5969 48.586 30.9036 49.1488 31.501C49.7339 32.1233 48.8622 32.9197 47.6638 33.3769C46.4134 33.8518 45.564 33.4684 44.7338 33.054C44.1502 32.759 43.2904 32.1691 42.8583 31.9316C42.4261 31.6942 41.6257 31.5644 41.2916 31.2119C41.1074 31.0172 40.9753 30.4745 40.8951 29.9981C40.8223 29.5557 40.5283 29.156 40.6783 29.1324L40.9218 29.3964C42.0504 29.6028 43.2266 28.5675 43.1612 27.9717Z" fill="url(#paint2_linear_414_5686)"/>
<path d="M4.01041 9.81055C3.29875 10.1924 2.53022 10.4587 1.73389 10.5996C1.73389 10.5996 2.99466 10.9137 4.49453 10.0509L4.01041 9.81055Z" fill="#F28F8F"/>
</g>
<defs>
<linearGradient id="paint0_linear_414_5686" x1="38.439" y1="14.2853" x2="31.0392" y2="13.8816" gradientUnits="userSpaceOnUse">
<stop stop-color="#92A3FD"/>
<stop offset="1" stop-color="#9DCEFF"/>
</linearGradient>
<linearGradient id="paint1_linear_414_5686" x1="22.7796" y1="24.6194" x2="3.85094" y2="23.1216" gradientUnits="userSpaceOnUse">
<stop stop-color="#92A3FD"/>
<stop offset="1" stop-color="#9DCEFF"/>
</linearGradient>
<linearGradient id="paint2_linear_414_5686" x1="49.3355" y1="33.5964" x2="37.8365" y2="32.2202" gradientUnits="userSpaceOnUse">
<stop stop-color="#92A3FD"/>
<stop offset="1" stop-color="#9DCEFF"/>
</linearGradient>
<clipPath id="clip0_414_5686">
<rect width="50.3895" height="34.1483" fill="white" transform="translate(-1)"/>
</clipPath>
</defs>
</svg>
